<?xml version="1.0" encoding="UTF-8"?><svg id="a" xmlns="http://www.w3.org/2000/svg" viewBox="0 0 28.2 28.5"><defs><style>.c,.d{fill:#131829;}.d{fill-rule:evenodd;}</style></defs><g id="b"><path class="c" d="m14.9,27.1H.9c-.4,0-.8-.3-.8-.8V2.2c0-.4.3-.8.8-.8h14c.4,0,.8.3.8.7h0c0-.4.4-.7.8-.7h10.1c.4,0,.7.3.8.7.5,3.8.8,7.6.8,11.4s-.3,7.6-.8,11.4c0,.4-.4.7-.8.7h-10.1c-.4,0-.7-.3-.8-.7,0,0,0,0,0,0v1.5c0,.4-.3.8-.8.8Zm-13.2-1.6h12.5V3H1.7v22.6Zm15.5-1.6h8.8c.5-3.5.7-7,.7-10.5,0-3.5-.2-7-.7-10.5h-8.8c-.4,3.5-.7,7-.7,10.5s.2,7,.7,10.5Z"/><path class="c" d="m7.9,10c-.3,0-.7,0-1-.2-.3,0-.5-.2-.8-.4-.4-.3-.7-.6-.9-1H.9c-.4,0-.8-.3-.8-.8V2.2c0-.4.3-.8.8-.8h14c.4,0,.8.3.8.8v5.4c0,.4-.3.8-.8.8h-4.3c-.6,1-1.6,1.6-2.7,1.6ZM1.7,6.9h4c.3,0,.6.2.7.5.1.3.3.6.6.8.1,0,.2.1.4.2.8.3,1.7-.1,2-1,.1-.3.4-.5.7-.5h4v-3.9H1.7v3.9Z"/><path class="c" d="m7.9,7.6c.4,0,.8-.3.8-.8s-.3-.8-.8-.8-.8.3-.8.8.3.8.8.8Zm0,14.8c.4,0,.8-.3.8-.8s-.3-.8-.8-.8-.8.3-.8.8.3.8.8.8Zm0-8.2c1.1,0,1.9-.5,1.9-1.2s-.9-1.2-1.9-1.2-1.9.5-1.9,1.2.9,1.2,1.9,1.2Z"/><path class="c" d="m7.9,22.8c-.6,0-1.2-.5-1.2-1.2s.5-1.2,1.2-1.2,1.2.5,1.2,1.2-.5,1.2-1.2,1.2Zm0-1.6c-.2,0-.4.2-.4.4s.2.4.4.4.4-.2.4-.4-.2-.4-.4-.4Zm0-6.6c-1.3,0-2.3-.7-2.3-1.6s1-1.6,2.3-1.6,2.3.7,2.3,1.6-1,1.6-2.3,1.6Zm0-2.3c-.9,0-1.6.4-1.6.8s.7.8,1.6.8,1.6-.4,1.6-.8-.7-.8-1.6-.8Zm0-4.3c-.6,0-1.2-.5-1.2-1.2s.5-1.2,1.2-1.2,1.2.5,1.2,1.2-.5,1.2-1.2,1.2Zm0-1.6c-.2,0-.4.2-.4.4s.2.4.4.4.4-.2.4-.4-.2-.4-.4-.4Z"/><path class="c" d="m14.9,27.1H.9c-.4,0-.8-.3-.8-.8v-5.4c0-.4.3-.8.8-.8h4.3c.2-.4.5-.7.9-1,.2-.2.5-.3.8-.4,1.4-.5,3,.1,3.7,1.4h4.3c.4,0,.8.3.8.8v5.4c0,.4-.3.8-.8.8Zm-13.2-1.6h12.5v-3.9h-4c-.3,0-.6-.2-.7-.5-.3-.8-1.2-1.2-2-.9-.1,0-.3.1-.4.2-.3.2-.5.4-.6.8-.1.3-.4.5-.7.5H1.7v3.9Zm24.1-15.6c0,0-.2,0-.3,0-.3,0-.5-.2-.7-.4-.1-.3-.1-.6,0-.8,0-.1.1-.2.1-.3,0-.4-.5-.8-1.2-.8s-1.1.4-1.2.7c0,.3-.2.5-.4.6-.2.1-.5.1-.7,0-2.2-1.1-3.6-2.9-3.6-4.9s.2-1.6.6-2.3c.1-.2.4-.4.7-.4h7.2c.4,0,.7.3.8.7.3,2.3.5,4.7.7,7,0,.4-.3.8-.7.8-.5,0-1,.1-1.5.1h0Zm-2-3.9c1.1,0,2.1.6,2.5,1.4-.1-1.5-.3-3-.5-4.5h-6.1c-.2.4-.2.8-.2,1.2,0,1.2.7,2.3,1.9,3.1.5-.7,1.4-1.1,2.3-1.1Z"/><path class="c" d="m25,27.1h-7c-.4,0-.8-.3-.8-.8v-1.6c0-.4.3-.8.8-.8h7c.4,0,.8.3.8.8v1.6c0,.4-.3.8-.8.8Zm-3.5-5.4c-2.5,0-3.9-4.3-4.2-8.6h-1.6v-1.6h11.6v1.6h-1.5c-.3,4.3-1.7,8.6-4.2,8.6Zm-2.7-8.6c.3,4.5,1.7,7,2.7,7s2.3-2.5,2.7-7h-5.3Zm5-2.3c-1.5,0-2.7-1-2.7-2.3s1.2-2.3,2.7-2.3,2.7,1,2.7,2.3-1.2,2.3-2.7,2.3Zm0-3.1c-.6,0-1.2.4-1.2.8s.5.8,1.2.8,1.2-.4,1.2-.8-.5-.8-1.2-.8Z"/><path class="c" d="m20.3,10.8c.4,0,.8-.3.8-.8s-.3-.8-.8-.8-.8.3-.8.8.3.8.8.8Zm-2.3,0c.4,0,.8-.3.8-.8s-.3-.8-.8-.8-.8.3-.8.8.3.8.8.8Z"/><path class="d" d="m21.1,3.7h3.9v1.6h-3.9v-1.6Z"/></g></svg>