<?xml version="1.0" encoding="UTF-8"?><svg id="a" xmlns="http://www.w3.org/2000/svg" viewBox="0 0 28.2 28.5"><defs><style>.c{fill:#131829;}</style></defs><g id="b"><path class="c" d="m28.2,25H0V3.5h28.2v21.5Zm-26.4-1.8h24.6v-7.6H1.8v7.6Zm0-9.4h24.6V5.3H1.8v8.5Z"/><path class="c" d="m24.6,26.8h-1.8v-2.7h1.8v2.7Zm-9.6,0h-1.8v-2.7h1.8v2.7Zm-9.6,0h-1.8v-2.7h1.8v2.7Zm17.3-14.3h-7.3v-5.4h7.3v5.4Zm-5.5-1.8h3.6v-1.8h-3.6v1.8Zm7.3-6.3h-1.8V1.7h1.8v2.7Zm-9.6,0h-1.8V1.7h1.8v2.7Zm-9.6,0h-1.8V1.7h1.8v2.7Z"/></g></svg>