<?xml version="1.0" encoding="UTF-8"?><svg id="a" xmlns="http://www.w3.org/2000/svg" viewBox="0 0 28.2 28.5"><defs><style>.c{fill:#131829;}</style></defs><g id="b"><path class="c" d="m14.1,28.2C6.4,28.2.2,21.9.2,14.3S6.4.3,14.1.3s13.9,6.2,13.9,13.9-6.2,13.9-13.9,13.9Zm0-26C7.5,2.2,2.1,7.6,2.1,14.3s5.4,12.1,12.1,12.1,12.1-5.4,12.1-12.1S20.8,2.2,14.1,2.2Z"/><path class="c" d="m14.1,20.2c-3.3,0-6-2.7-6-6s2.7-6,6-6,6,2.7,6,6-2.7,6-6,6Zm0-10.1c-2.3,0-4.1,1.9-4.1,4.1s1.8,4.1,4.1,4.1,4.1-1.9,4.1-4.1-1.8-4.1-4.1-4.1Z"/><path class="c" d="m14.1,16.6c-1.3,0-2.4-1.1-2.4-2.4s1.1-2.4,2.4-2.4c1.3,0,2.4,1.1,2.4,2.4,0,1.3-1.1,2.4-2.4,2.4Zm0-1.9c.3,0,.5-.2.5-.5s-.2-.5-.5-.5-.5.2-.5.5.2.5.5.5Z"/></g></svg>