<?xml version="1.0" encoding="UTF-8"?><svg id="a" xmlns="http://www.w3.org/2000/svg" viewBox="0 0 28.2 28.5"><defs><style>.c{fill:#131829;}</style></defs><g id="b"><path class="c" d="m26.3,22.3h-10.8c-.9,0-1.5-.7-1.5-1.5v-11.6c0-.9.7-1.5,1.5-1.5h10.8c.9,0,1.5.7,1.5,1.5v11.6c0,.9-.7,1.5-1.5,1.5Zm-10.8-13.1v11.6h10.8v-11.6h-10.8Z"/><path class="c" d="m24.8,9.2h-7.7v-3.9h.8l.2-3.2c0-1.2,1.1-2.1,2.3-2.1h1c1.2,0,2.2.9,2.3,2.1l.2,3.2h.8v3.9Zm-6.2-1.5h4.6v-.8h-4.6v.8Zm.8-2.3h3l-.2-3.1c0-.4-.4-.7-.8-.7h-1c-.4,0-.7.3-.8.7l-.2,3.1Zm8-.8h-2.3v-1.5h2.3v1.5Zm-10.7,0h-2.3v-1.5h2.3v1.5Zm8.1-2.5l-.4-1.5L26.6,0l.4,1.5-2.2.6Zm-7.8,0l-2.2-.6.4-1.5,2.2.6-.4,1.5Z"/><path class="c" d="m7.1,28.5h-3.1c-.9,0-1.5-.7-1.5-1.5v-6.2c0-.9.7-1.5,1.5-1.5h3.1c.8,0,1.5.7,1.5,1.5v6.2c0,.9-.7,1.5-1.5,1.5Zm-3.1-7.7v6.2h3.1v-6.2h-3.1Z"/><path class="c" d="m4.7,20h1.5v1.5h-1.5v-1.5Z"/><path class="c" d="m8.2,18.8c-.2,0-.4,0-.5-.2-1.2-1.2-3.2-1.2-4.4,0-.3.3-.8.3-1.1,0s-.3-.8,0-1.1c1.8-1.8,4.7-1.8,6.5,0,.3.3.3.8,0,1.1-.2.2-.3.2-.5.2h0Zm1.6-1.6c-.2,0-.4,0-.5-.2-2.1-2.1-5.5-2.1-7.6,0-.3.3-.8.3-1.1,0-.3-.3-.3-.8,0-1.1,2.7-2.7,7.1-2.7,9.8,0,.3.3.3.8,0,1.1s-.3.2-.5.2Z"/><path class="c" d="m4.7,10.8h1.5v1.5h-1.5v-1.5Zm11.6,13.1h1.5v1.5h-1.5v-1.5Z"/><path class="c" d="m24,17.7c.4,0,.8.3.8.8s-.3.8-.8.8-.8-.3-.8-.8.3-.8.8-.8Z"/><path class="c" d="m17.8,17.7c.4,0,.8.3.8.8s-.3.8-.8.8-.8-.3-.8-.8.3-.8.8-.8Z"/><path class="c" d="m20.9,17.7c.4,0,.8.3.8.8s-.3.8-.8.8-.8-.3-.8-.8.3-.8.8-.8Z"/><path class="c" d="m4.7,7.7h1.5v1.5h-1.5v-1.5Zm5.4,19.3h1.5v1.5h-1.5v-1.5ZM7.8,7.7h1.5v1.5h-1.5v-1.5Zm5.4,19.3h1.5v1.5h-1.5v-1.5Zm-2.3-19.3h1.5v1.5h-1.5v-1.5Zm5.4,19.3h1.5v1.5h-1.5v-1.5Z"/><path class="c" d="m24.8,15.4h-5.4v-4.6h5.4v4.6Zm-3.9-1.5h2.3v-1.5h-2.3v1.5Z"/><path class="c" d="m15.5,12.3h1.5c.4,0,.8.3.8.8s-.3.8-.8.8h-1.5c-.4,0-.8-.3-.8-.8s.3-.8.8-.8Z"/></g></svg>