<?xml version="1.0" encoding="UTF-8"?><svg id="a" xmlns="http://www.w3.org/2000/svg" viewBox="0 0 28.2 28.5"><defs><style>.c{fill:#131829;}</style></defs><g id="b"><path class="c" d="m14.9,28.4h-6.7c-1,0-1.9-.7-2.1-1.6v-.3c0,0,0-.3,0-.3.3-.6.9-.9,1.6-1,.1-.4.4-.8.7-1.1v-.6h6.2c1.1,0,2,.7,2.2,1.7v.5c.4,1.1-.3,2.3-1.5,2.5-.2,0-.3,0-.5,0h0Zm-7.1-1.7c.1.1.3.2.4.2h6.7s0,0,.1,0c.3,0,.6-.4.5-.7v-.5c-.2-.3-.5-.6-.9-.6h-4.7c-.3,0-.7.2-.7.6l-.3,1.2-.7-.2c-.1,0-.3,0-.4,0Z"/><path class="c" d="m13.3,25.1h-3.3c-.4,0-.8-.2-1-.5-.2-.3-.3-.7-.2-1.1.2-.7.9-1.2,1.6-1.2h2.6c.8,0,1.4.5,1.6,1.2.2.6-.1,1.2-.7,1.5-.2,0-.4.1-.6.1Z"/><path class="c" d="m8.9,23.4c-1.5,0-2.8-.8-3.5-2.1-.5-.9-.5-2-.1-3,.4-1,1.1-1.7,2.1-2.2.5-.2,1-.3,1.5-.3.2,0,.2,0,.4,0l3.5.3c.2,0,.4.1.5.3l3.4,3.9c.5.5,1.1.7,1.8.7.4,0,.7.2.8.6,0,.4-.1.7-.5.8-.2,0-.4.1-.6.1l-8.9.8c-.1,0-.2,0-.4,0h0Zm0-6.1c-.3,0-.6,0-.9.2-.6.2-1,.7-1.3,1.3-.2.6-.2,1.2,0,1.8.4.9,1.4,1.4,2.3,1.3l6.4-.6h0c0-.1,0-.1-.1-.2l-3.1-3.5-3.2-.3c0,0-.2,0-.2,0h0Z"/><path class="c" d="m18.4,22.5c-.6,0-1.2-.1-1.7-.4-.5-.2-.9-.6-1.3-1L6,10.5c-.5-.6-.7-1.3-.7-2h0c0-.5.3-.8.7-.8.4,0,.7.2.8.6,0,.5.4.9.8,1.1.4.2.8.2,1.1,0l3.2-1.1c.3,0,.5,0,.7.1l8.3,7.1c.8.7,1.3,1.7,1.3,2.8,0,2.1-1.6,3.9-3.8,4,0,0,0,0-.1,0Zm-9.9-11.4l8.1,9.1c.2.2.5.4.8.6.3.2.7.2,1.1.2,1.3,0,2.4-1.2,2.3-2.5,0-.7-.3-1.3-.8-1.7l-8-6.9-2.7.9c-.2,0-.5.1-.8.2h0Z"/><path class="c" d="m8.2,11c-.5,0-.9-.1-1.3-.3-.7-.3-1.2-.9-1.5-1.7-.4-1.2,0-2.6,1.1-3.3.3-.2.7-.4,1.1-.5l10.3-2c1.2-.2,2.4.6,2.7,1.8.2,1.1-.4,2.2-1.5,2.5l-9.9,3.3c-.3.1-.6.2-1,.2h0Zm10.2-6.4s0,0-.1,0l-10.3,2c-.2,0-.4.1-.6.2-.5.4-.8,1-.6,1.7.1.4.4.7.7.8.4.2.8.2,1.1,0l9.9-3.3c.4-.1.6-.5.5-.9,0-.4-.4-.6-.8-.6Z"/><path class="c" d="m20.3,5.1c-.3,0-.6,0-.9-.2-.8-.5-1.1-1.6-.6-2.4l1.2-2c.2-.4.7-.5,1-.3.4.2.5.7.3,1l-1.2,2c0,.1,0,.3,0,.4.1,0,.3,0,.4-.1l1.2-2c.2-.4.7-.5,1-.3.4.2.5.7.3,1l-1.2,2c-.3.6-1,.9-1.6.9h0Z"/><path class="c" d="m18.4,20.4c-1,0-1.8-.8-1.8-1.7s.8-1.7,1.8-1.7,1.8.8,1.8,1.7-.8,1.7-1.8,1.7Zm0-2c-.1,0-.3.1-.3.3s.1.3.3.3.3-.1.3-.3-.1-.3-.3-.3Z"/><path class="c" d="m8.9,21.4c-1,0-1.8-.8-1.8-1.7s.8-1.7,1.8-1.7,1.8.8,1.8,1.7-.8,1.7-1.8,1.7Zm0-2c-.1,0-.3.1-.3.3s.1.3.3.3.3-.1.3-.3-.1-.3-.3-.3Z"/></g></svg>