<?xml version="1.0" encoding="UTF-8"?><svg id="a" xmlns="http://www.w3.org/2000/svg" viewBox="0 0 28.2 28.5"><defs><style>.c{fill:#131829;}</style></defs><g id="b"><path class="c" d="m19.6,28.1h-11.1c-1.3,0-2.4-1.1-2.4-2.4V2.8c0-1.3,1.1-2.4,2.4-2.4h11.1c1.3,0,2.4,1.1,2.4,2.4v22.9c0,1.3-1.1,2.4-2.4,2.4ZM8.6,2c-.4,0-.8.4-.8.8v22.9c0,.4.4.8.8.8h11.1c.4,0,.8-.4.8-.8V2.8c0-.4-.4-.8-.8-.8h-11.1Z"/><path class="c" d="m10.6,13.9c-.4,0-.8-.4-.8-.8V4.4c0-.4.4-.8.8-.8s.8.4.8.8v8.7c0,.4-.4.8-.8.8Z"/><path class="c" d="m14.1,24.9c-2.6,0-4.7-2.1-4.7-4.7s2.1-4.7,4.7-4.7,4.7,2.1,4.7,4.7-2.1,4.7-4.7,4.7Zm.8-2.8v1.2c.3,0,.6-.2.8-.3l-.8-.8Zm-2.4.8c.3.1.5.3.8.3v-1.2l-.8.8Zm-1.5-1.9c0,.3.2.6.3.8l.8-.8h-1.2Zm5,0l.8.8c.2-.3.3-.5.3-.8h-1.2Zm0-1.6h1.2c0-.3-.2-.6-.3-.8l-.8.8Zm-5,0h1.2l-.8-.8c-.1.3-.3.5-.3.8Zm3.8-2.3v1.2l.8-.8c-.3-.2-.5-.3-.8-.3Zm-2.4.3l.8.8v-1.2c-.3,0-.6.2-.8.3h0Z"/><path class="c" d="m17.7,13.9c-.4,0-.8-.4-.8-.8V4.4c0-.4.4-.8.8-.8s.8.4.8.8v8.7c0,.4-.4.8-.8.8Zm-2.4,0c-.4,0-.8-.4-.8-.8V4.4c0-.4.4-.8.8-.8s.8.4.8.8v8.7c0,.4-.4.8-.8.8Zm-2.4,0c-.4,0-.8-.4-.8-.8V4.4c0-.4.4-.8.8-.8s.8.4.8.8v8.7c0,.4-.4.8-.8.8Z"/></g></svg>