<svg width="104" height="19" fill="none" xmlns="http://www.w3.org/2000/svg"><path d="M9.112 8.51h8.71v1.027a9.357 9.357 0 01-.624 3.432 8.434 8.434 0 01-1.755 2.795 8.186 8.186 0 01-2.717 1.872c-1.04.45-2.188.676-3.445.676-1.291 0-2.47-.23-3.536-.69a8.237 8.237 0 01-2.756-1.91 8.76 8.76 0 01-1.794-2.834 9.599 9.599 0 01-.624-3.471c0-1.222.208-2.37.624-3.445A8.58 8.58 0 012.99 3.128a8.238 8.238 0 012.756-1.911C6.811.757 7.99.527 9.281.527c.997 0 1.885.11 2.665.326.78.216 1.46.511 2.041.884.59.364 1.097.771 1.521 1.222.434.442.793.888 1.08 1.339L13.544 5.78c-.416-.607-.97-1.127-1.664-1.56-.684-.433-1.551-.65-2.6-.65-.78 0-1.499.156-2.158.468a5.144 5.144 0 00-1.69 1.26A5.912 5.912 0 004.34 7.171a6.386 6.386 0 00-.39 2.236c0 .797.13 1.547.39 2.249a6.11 6.11 0 001.092 1.872c.477.537 1.04.957 1.69 1.26a5.095 5.095 0 002.158.456c.711 0 1.357-.104 1.937-.312a4.499 4.499 0 001.508-.884 4.287 4.287 0 001.027-1.34 4.4 4.4 0 00.43-1.676h-5.07V8.51zM20.189.84h10.647v2.873h-7.423v4.29h7.319v2.782h-7.32v4.342h7.424V18H20.189V.84zm20.593 0h9.542v2.873h-6.292v4.25h5.837v2.86h-5.837V18h-3.25V.84zM60.477 18v-1.86c-.078.191-.278.46-.598.807-.321.347-.754.663-1.3.949-.538.277-1.17.416-1.898.416-1.023 0-1.929-.243-2.717-.728a5.21 5.21 0 01-1.86-2.015c-.441-.858-.662-1.825-.662-2.9 0-1.074.22-2.036.663-2.885a5.188 5.188 0 011.859-2.028c.788-.494 1.694-.741 2.717-.741.71 0 1.326.121 1.846.364.528.234.953.511 1.274.832.329.312.541.594.637.845v-1.73h3.276V18h-3.237zm-5.798-5.33c0 .598.134 1.127.403 1.586a2.888 2.888 0 002.509 1.43c.546 0 1.031-.126 1.456-.377.424-.26.758-.615 1-1.066.252-.46.378-.984.378-1.573 0-.59-.126-1.11-.377-1.56a2.735 2.735 0 00-1.001-1.08c-.425-.26-.91-.39-1.456-.39-.52 0-1.001.13-1.443.39a2.86 2.86 0 00-1.066 1.067c-.269.45-.403.975-.403 1.573zm18.557-5.655a5.27 5.27 0 012.132.455 3.852 3.852 0 011.703 1.417c.451.65.676 1.5.676 2.548V18h-3.315v-5.993c0-.875-.208-1.525-.624-1.95-.407-.425-.944-.637-1.612-.637-.433 0-.849.121-1.248.364-.39.234-.71.563-.962.988a2.786 2.786 0 00-.364 1.43V18H66.32V7.327h3.302V9.03c.096-.295.312-.598.65-.91.338-.312.767-.572 1.287-.78a4.316 4.316 0 011.677-.325zm10.197 5.421c0 .953.19 1.716.572 2.288.381.563.997.845 1.846.845.858 0 1.478-.282 1.86-.845.38-.572.571-1.335.571-2.288v-5.11h3.25v5.487c0 1.1-.22 2.067-.663 2.899a4.658 4.658 0 01-1.937 1.924c-.84.45-1.868.676-3.08.676-1.206 0-2.233-.226-3.082-.676a4.676 4.676 0 01-1.924-1.924c-.442-.832-.663-1.798-.663-2.9V7.328h3.25v5.109zm16.267 3.25c.564 0 1.023-.095 1.379-.286.355-.19.589-.334.702-.43l1.534 2.276c-.122.095-.347.23-.676.403-.33.173-.75.325-1.261.455-.503.139-1.079.208-1.73.208-1.126 0-2.136-.226-3.028-.676a5.286 5.286 0 01-2.12-1.95c-.51-.85-.766-1.86-.766-3.03 0-1.178.255-2.188.767-3.028A5.195 5.195 0 0196.62 7.69c.892-.45 1.902-.676 3.029-.676.641 0 1.209.07 1.703.208a6.12 6.12 0 011.261.48c.338.174.572.317.702.43l-1.573 2.288a2.169 2.169 0 00-.351-.286 3.014 3.014 0 00-.689-.338 2.86 2.86 0 00-1.001-.156c-.477 0-.932.126-1.365.377a2.955 2.955 0 00-1.04 1.053c-.269.45-.403.98-.403 1.586 0 .607.134 1.14.403 1.599.268.45.615.801 1.04 1.053a2.68 2.68 0 001.365.377z" fill="#000"/></svg>