<svg width="124" height="22" fill="none" xmlns="http://www.w3.org/2000/svg"><path fill-rule="evenodd" clip-rule="evenodd" d="M111.683 16.664h4.683V0h-4.683v16.664zM123.25 0v16.664h-4.68V0h4.68zM9.984 6.472H6.197V0H0v16.664h6.197V8.4h3.787v8.263h6.197V0H9.984v6.472zm29.091-.275l-.379-1.102h-5.095v11.569h5.095V9.709c0-1.515.965-2.341 1.79-2.341.69 0 1.584.137 1.584 1.652v7.644h5.095V9.158c0-4.2-4.715-5.852-8.09-2.961zm52.331 5.612L89.03 5.095h-3.477l-2.376 6.99-2.479-6.99h-6.816l-2.445 5.887-3.443-5.887h-5.818l6.851 11.706-.895 2.203c-.31.689-1.052.723-1.197.069a2.143 2.143 0 10-4.285 0c.009 1.24 1.248 2.858 3.692 2.754 2.445-.103 3.477-2.134 3.821-2.995L75.825 5.14l4.082 11.524h3.718l2.272-6.646 2.341 6.646h3.512l3.959-11.569h-2.031l-2.272 6.714zM24.96 4.507c-3.9 0-7.06 2.9-7.06 6.475 0 3.577 3.16 6.476 7.06 6.476 3.899 0 7.06-2.899 7.06-6.476 0-3.576-3.161-6.475-7.06-6.475zm1.756 9.505a1.755 1.755 0 11-3.512 0V7.953a1.756 1.756 0 113.512 0v6.059z" fill="#5A5A5A"/><path fill-rule="evenodd" clip-rule="evenodd" d="M62.742 11.912c.037-.271.056-.65.056-.93 0-3.576-3.16-6.475-7.06-6.475-3.9 0-7.06 2.9-7.06 6.475 0 3.577 3.16 6.476 7.06 6.476 2.68 0 5.01-1.37 6.206-3.386l-1.56-.577c-.942 1.44-2.67 2.405-4.645 2.405-.97 0-1.757-.918-1.757-1.888v-2.1h8.76zm-8.76-3.96a1.756 1.756 0 113.512 0v2.308h-3.512V7.953zm55.925 3.96c.038-.271.057-.65.057-.93 0-3.576-3.16-6.475-7.06-6.475-3.9 0-7.06 2.9-7.06 6.475 0 3.577 3.16 6.476 7.06 6.476 2.68 0 5.01-1.37 6.206-3.386l-1.559-.577c-.943 1.44-2.67 2.405-4.647 2.405-.97 0-1.756-.918-1.756-1.888v-2.1h8.759zm-8.759-3.96a1.758 1.758 0 011.756-1.756 1.755 1.755 0 011.757 1.757v2.307h-3.513V7.953z" fill="#5A5A5A"/></svg>