<svg width="123" height="20" fill="none" xmlns="http://www.w3.org/2000/svg"><path fill-rule="evenodd" clip-rule="evenodd" d="M120.896.683v3.643c-1.888-.713-3.568-1.073-5.039-1.073-.87 0-1.565.161-2.086.473-.522.315-.788.702-.788 1.159 0 .608.589 1.148 1.775 1.632l3.425 1.667c2.77 1.32 4.143 3.073 4.143 5.275 0 1.83-.729 3.29-2.2 4.372-1.46 1.091-3.425 1.632-5.871 1.632-1.13 0-2.143-.049-3.044-.15-.9-.098-1.936-.297-3.084-.582v-3.812c2.106.712 4.023 1.073 5.749 1.073 2.06 0 3.084-.597 3.084-1.802 0-.6-.42-1.083-1.272-1.462l-3.805-1.622c-1.403-.634-2.446-1.403-3.13-2.315-.671-.919-1.013-1.973-1.013-3.177 0-1.686.71-3.044 2.113-4.076C111.268.513 113.144 0 115.478 0c.758 0 1.632.067 2.6.19.946.126 1.886.29 2.818.493zm-107.75 0v3.643c-1.887-.713-3.565-1.073-5.035-1.073-.874 0-1.565.161-2.087.473-.521.315-.788.702-.788 1.159 0 .608.597 1.148 1.783 1.632l3.425 1.667c2.759 1.32 4.135 3.073 4.135 5.275 0 1.83-.73 3.29-2.19 4.372-1.472 1.091-3.426 1.632-5.88 1.632-1.13 0-2.146-.049-3.047-.15-.9-.098-1.925-.297-3.081-.582v-3.812c2.113.712 4.03 1.073 5.745 1.073 2.06 0 3.084-.597 3.084-1.802 0-.6-.417-1.083-1.26-1.462l-3.805-1.622c-1.414-.634-2.458-1.403-3.13-2.315C.332 7.872 0 6.818 0 5.614 0 3.928.704 2.57 2.116 1.538 3.519.513 5.399 0 7.733 0c.766 0 1.629.067 2.607.19.968.132 1.907.294 2.807.493h-.001zm3.926-.342h5.579v18.78H17.07l.002-18.78zm23.552 0v3.471h-8.289v4.165h7.19v3.13h-7.19v4.371h8.459v3.643H26.966V.341h13.658zm26.045 0v18.78H61.46V6.735l-5.404 12.558H52.84L47.643 6.735v12.386h-3.767V.341h6.81l4.65 11.497L60.2.341h6.469zm17.965 0v3.471h-8.243v4.165h7.189v3.13h-7.19v4.371h8.414v3.643H70.976V.341h13.658zm19.576 0v18.78h-5.918l-6.64-12.045v12.045h-3.764V.341h6.09l6.468 11.838V.341h3.764z" fill="#6B6B6B"/></svg>