<svg width="131" height="17" fill="none" xmlns="http://www.w3.org/2000/svg"><path fill-rule="evenodd" clip-rule="evenodd" d="M26.057 9.997l-5.495-8.896h2.972L27.41 7.66l3.811-6.558h2.87l-5.473 8.896v5.737h-2.56V9.997zm20.66-1.577c0 4.18-2.626 7.665-7.013 7.665-4.384 0-7.01-3.485-7.01-7.665 0-4.181 2.626-7.667 7.01-7.667 4.388 0 7.012 3.486 7.012 7.667zm-11.458 0c0 2.808 1.312 5.575 4.446 5.575 3.137 0 4.449-2.767 4.449-5.575 0-2.81-1.312-5.576-4.449-5.576-3.134 0-4.446 2.766-4.446 5.576zM48.022 1.1h2.564v6.662L57.103 1.1h3.157l-5.844 5.843 6.253 8.79h-3.196l-4.796-6.986-2.091 2.068v4.918h-2.564V1.101z" fill="#000"/><path fill-rule="evenodd" clip-rule="evenodd" d="M73.045 8.42c0 4.18-2.623 7.665-7.01 7.665S59.026 12.6 59.026 8.42c0-4.181 2.622-7.667 7.01-7.667 4.386 0 7.009 3.486 7.009 7.667zm-11.458 0c0 2.808 1.314 5.575 4.448 5.575 3.139 0 4.449-2.767 4.449-5.575 0-2.81-1.311-5.576-4.449-5.576-3.134 0-4.448 2.766-4.448 5.576zm25.942 7.314h-1.638l-.39-1.72c-1.372 1.56-2.622 2.072-4.407 2.072-4.384 0-7.008-3.485-7.008-7.666 0-4.18 2.624-7.666 7.008-7.666 3.2 0 5.886 1.7 6.271 5.002h-2.498c-.245-1.929-1.927-2.912-3.773-2.912-3.134 0-4.445 2.768-4.445 5.576 0 2.81 1.312 5.576 4.445 5.576 2.626.038 4.059-1.54 4.1-4.02h-3.893V8.032h6.228v7.703zm6.087-14.633h2.725l5.638 14.633h-2.748l-1.373-3.872h-5.843l-1.372 3.872H88L93.616 1.1zm-.902 8.814h4.468l-2.194-6.292h-.06l-2.214 6.292zm7.379-8.814h2.602l2.645 11.19h.04l2.953-11.19h2.622l2.87 11.19h.042l2.725-11.19h2.603l-4.038 14.633h-2.604l-2.929-11.19h-.042l-2.992 11.19h-2.645l-3.852-14.633zm22.031 0h2.725l5.636 14.633h-2.745l-1.375-3.872h-5.839l-1.374 3.872h-2.643L122.124 1.1zm-.902 8.814h4.468l-2.194-6.292h-.061l-2.213 6.292z" fill="#000"/><path fill-rule="evenodd" clip-rule="evenodd" d="M16.501 8.252a20.283 20.283 0 00-8.252 8.539A20.275 20.275 0 000 8.255L8.252 0l8.25 8.252z" fill="#D6D6D6"/></svg>