<svg xmlns="http://www.w3.org/2000/svg" width="79" height="30" fill="none"><path d="M42.727 30h1.818c5.455-.273 9.273-4.545 9.273-9.636 0-1.728-.363-3.455-1.182-4.819h-9.909V30zm-10-14.545h9.091V30h-9.091V15.455zm19.363-.91c-.908-1.272-2.18-2.272-3.545-3 1.637-1.18 2.728-3.09 2.728-5.18A6.325 6.325 0 0044.909 0h-2.182v14.545h9.364-.001zM32.727 0h9.091v14.545h-9.091V0zm34.546 30h1.818c5.454-.273 9.273-4.545 9.273-9.636 0-1.728-.364-3.455-1.182-4.819h-9.91V30h.001zm-10-14.545h9.091V30h-9.091V15.455zm19.363-.91c-.909-1.272-2.181-2.272-3.545-3 1.636-1.18 2.727-3.09 2.727-5.18A6.324 6.324 0 0069.455 0h-2.182v14.545h9.363zM57.273 0h9.091v14.545h-9.091V0zM5.182 15.455L0 30h7.545l2.182-6.364h4.818v-8.18H5.182zM14.545 0h-3.909L5.455 14.545h9.09V0zm.91 23.636h4.818L22.455 30H30l-5.182-14.545h-9.363v8.181zm9.09-9.09L19.364 0h-3.91v14.545h9.091z" fill="#4E4E4E"></path></svg>