<?xml version="1.0" encoding="UTF-8"?> <svg xmlns="http://www.w3.org/2000/svg" width="129" height="21" fill="none"><path d="M2.72 16.046c.203 0 .336-.112.4-.335l1.07-2.516h6.845l1.07 2.516c.042.13.098.218.167.265.067.047.17.07.307.07h2.073c.252 0 .415-.045.487-.135a.465.465 0 00.107-.297v-.065L8.822.367a.743.743 0 00-.206-.253.578.578 0 00-.367-.102H6.997c-.194 0-.335.034-.421.102a.743.743 0 00-.206.254c-1.56 3.824-3.144 7.64-4.75 11.445A351.419 351.419 0 000 15.647c0 .129.034.228.102.296.069.069.193.103.373.103h2.246zm7.181-5.798H5.323l2.3-5.582 2.28 5.582H9.9zm7.976 5.798a.63.63 0 00.448-.156.57.57 0 00.168-.439V.618a.546.546 0 00-.206-.449.65.65 0 00-.41-.168h-1.729a.56.56 0 00-.437.173.634.634 0 00-.157.442v14.837c0 .395.199.593.595.593h1.728zm5.093 0a.63.63 0 00.45-.156.569.569 0 00.165-.439V.618a.548.548 0 00-.204-.449.65.65 0 00-.411-.167h-1.727a.56.56 0 00-.438.173.634.634 0 00-.157.442v14.836c0 .395.198.593.595.593h1.727zm7.404.205c.303 0 .608-.025.917-.075a6.307 6.307 0 001.782-.573 4.54 4.54 0 00.745-.464c.108-.078.198-.168.27-.27a.547.547 0 00.108-.325.616.616 0 00-.14-.377l-.8-1.09a.572.572 0 00-.204-.195.5.5 0 00-.227-.054.502.502 0 00-.254.065l-.265.15a3.396 3.396 0 01-.977.514 3.13 3.13 0 01-.977.168c-.258 0-.516-.044-.772-.135a2.545 2.545 0 01-1.625-1.81H33.7c.266 0 .498-.018.696-.058.18-.032.349-.104.496-.21a.891.891 0 00.298-.416c.064-.177.096-.402.096-.675v-.065c0-.712-.133-1.378-.4-1.998a5.008 5.008 0 00-1.089-1.608 5.207 5.207 0 00-1.604-1.075 4.863 4.863 0 00-1.949-.394 4.8 4.8 0 00-2.046.438 5.18 5.18 0 00-1.641 1.187 5.699 5.699 0 00-1.485 3.86c0 .77.138 1.489.416 2.154a5.393 5.393 0 002.823 2.905 5.034 5.034 0 002.063.427zm2.149-6.619H28.03c.1-.53.392-1.005.82-1.334a2.32 2.32 0 012.203-.339c.252.093.478.221.68.382.406.325.685.782.789 1.291zm6.194 6.414c.425 0 .637-.198.637-.593V10.01c.043-.26.139-.508.28-.73.142-.222.316-.422.518-.592a2.44 2.44 0 01.665-.4c.241-.097.476-.146.707-.146.281 0 .54.047.777.14.237.094.445.224.621.39.177.165.314.369.41.609.098.241.146.505.146.794v5.356c0 .201.043.354.13.459.086.104.244.157.475.157h1.77a.633.633 0 00.444-.169c.122-.11.183-.267.183-.47V9.58c0-.62-.093-1.19-.28-1.712a3.82 3.82 0 00-.816-1.35c-.37-.387-.82-.69-1.317-.886-.522-.212-1.118-.317-1.787-.317-.352 0-.685.042-.994.129a4.226 4.226 0 00-1.576.82 5.51 5.51 0 00-.573.55 4.847 4.847 0 01-.112-.527 1.798 1.798 0 00-.12-.438.66.66 0 00-.243-.297c-.108-.072-.27-.108-.485-.108H37.01c-.222 0-.388.056-.496.168-.108.111-.162.27-.162.48v9.362c0 .172.052.314.157.426.104.112.26.167.469.167h1.739v-.001zm16.786-4.794a.515.515 0 00.421-.2.653.653 0 00.163-.416V9.114a.525.525 0 00-.169-.41.597.597 0 00-.415-.152h-7.04a.57.57 0 00-.421.152.555.555 0 00-.152.41v1.522c0 .21.05.364.152.465.101.101.241.15.421.15h7.041-.001zm10.255 4.795c.64 0 1.243-.13 1.808-.39a4.782 4.782 0 002.462-2.564 4.73 4.73 0 00.362-1.83c0-.374-.047-.746-.14-1.107a4.93 4.93 0 00-1.006-1.954 5.353 5.353 0 00-.777-.762c.364-.38.649-.83.837-1.322A4.443 4.443 0 0069.6 4.48a4.404 4.404 0 00-1.317-3.18A4.574 4.574 0 0065.077.012h-6.414a.57.57 0 00-.437.167.629.629 0 00-.157.448v14.846c0 .188.056.33.168.427a.623.623 0 00.427.146h7.094zM64.472 6.49h-3.206V2.808h3.228c.569 0 1.029.155 1.382.464.353.31.53.731.53 1.263 0 .274-.048.53-.14.767A1.841 1.841 0 0165.25 6.34a1.97 1.97 0 01-.778.151zm.659 6.76h-3.865V9.04h3.865c.28 0 .541.06.783.183.239.12.454.285.632.485.18.202.321.432.427.691a2.092 2.092 0 010 1.582 2.065 2.065 0 01-.433.653 2.14 2.14 0 01-.638.448 1.8 1.8 0 01-.771.168zm8.71 2.797c.238 0 .408-.055.513-.163.104-.108.157-.266.157-.475V9.394c.115-.186.23-.358.345-.512a2.22 2.22 0 01.378-.4 1.59 1.59 0 01.448-.258c.182-.065.374-.097.567-.093.15 0 .288.006.41.017.246.022.482.106.686.244.112.07.232.165.362.28.157.143.327.184.508.124a.751.751 0 00.42-.362l.756-1.188a.858.858 0 00.13-.421c0-.209-.115-.374-.346-.496-.245-.18-.464-.334-.658-.46a3.414 3.414 0 00-.589-.307 2.967 2.967 0 00-.632-.173 5.017 5.017 0 00-.788-.054c-.288 0-.54.043-.756.129-.213.085-.41.206-.583.357a2.75 2.75 0 00-.46.518 6.53 6.53 0 00-.37.615 5.997 5.997 0 01-.222-.544 4.256 4.256 0 00-.19-.465 1.126 1.126 0 00-.227-.324.478.478 0 00-.344-.123h-1.177a.808.808 0 00-.45.145c-.145.097-.22.253-.22.469v9.298c0 .208.055.366.168.474.11.108.271.162.48.162h1.684zm10.75.204c.375 0 .701-.04.978-.119.277-.079.52-.183.73-.312a2.57 2.57 0 00.544-.45c.155-.168.297-.346.427-.533.01.093.024.184.043.275a.867.867 0 01.016.113l.016.162a4.1 4.1 0 00.07.259.625.625 0 00.113.21c.052.063.12.112.196.141a.83.83 0 00.312.049h1.372c.186 0 .35-.057.49-.168a.554.554 0 00.212-.458V6.112a.613.613 0 00-.211-.485.724.724 0 00-.491-.184h-1.145c-.123 0-.223.01-.302.032a.456.456 0 00-.195.102.469.469 0 00-.119.2 3.308 3.308 0 00-.086.325 6.805 6.805 0 01-.076.388c-.029.13-.05.259-.065.389a4.229 4.229 0 00-.469-.61 3.014 3.014 0 00-1.404-.858 3.633 3.633 0 00-1.01-.13 5.244 5.244 0 00-2.126.421 4.94 4.94 0 00-1.647 1.156 5.267 5.267 0 00-1.068 1.738 6.064 6.064 0 00-.384 2.18c0 .771.128 1.49.384 2.16a5.15 5.15 0 001.079 1.738c.465.49 1.015.876 1.652 1.157.637.28 1.34.42 2.11.42h.055zm.131-2.785a2.43 2.43 0 01-1.005-.205 2.251 2.251 0 01-.772-.567 2.572 2.572 0 01-.491-.848 3.103 3.103 0 01-.173-1.048c0-.367.058-.715.173-1.047.115-.33.28-.62.492-.864a2.296 2.296 0 011.776-.8c.389 0 .733.073 1.037.217.302.144.559.34.77.588a2.6 2.6 0 01.487.87c.112.33.167.68.167 1.047 0 .382-.057.735-.173 1.058-.107.31-.274.596-.491.842-.216.24-.481.43-.777.556-.323.137-.67.205-1.02.2v.001zm11.625 2.785c.64 0 1.184-.114 1.63-.346.446-.23.85-.572 1.21-1.025l.119.615a.8.8 0 00.146.314.59.59 0 00.215.161.822.822 0 00.27.065c.098.007.203.012.319.012h1.058a.655.655 0 00.449-.19.633.633 0 00.156-.448V.649a.577.577 0 00-.211-.46.739.739 0 00-.491-.177h-1.63c-.217 0-.382.06-.498.178a.632.632 0 00-.172.459v5.766a3.916 3.916 0 00-1.064-.772 3.162 3.162 0 00-1.462-.33c-.735 0-1.413.142-2.036.427a4.969 4.969 0 00-1.614 1.166 5.34 5.34 0 00-1.059 1.738 6.004 6.004 0 00-.377 2.144c0 .756.127 1.464.383 2.127a5.47 5.47 0 001.063 1.738c.454.496.988.887 1.604 1.171a4.68 4.68 0 001.992.427zm.41-2.764a2.125 2.125 0 01-.934-.21c-.29-.14-.55-.335-.766-.573a2.714 2.714 0 01-.52-.854 2.877 2.877 0 01-.188-1.04c0-.375.063-.726.189-1.054.127-.327.3-.613.519-.858a2.56 2.56 0 01.766-.584 2.15 2.15 0 011.88 0c.298.146.558.341.782.59.223.248.4.539.529.869.129.331.194.687.194 1.069 0 .367-.067.71-.2 1.03a2.75 2.75 0 01-.534.837 2.568 2.568 0 01-.778.567c-.293.14-.614.213-.94.212zm9.272 2.559a.629.629 0 00.448-.156.578.578 0 00.167-.439V.618a.546.546 0 00-.205-.449.652.652 0 00-.41-.168h-1.73a.557.557 0 00-.436.173.636.636 0 00-.158.442v14.837c0 .395.199.593.596.593h1.728zm7.403.205c.304 0 .608-.025.918-.075a6.306 6.306 0 001.782-.573c.262-.13.512-.286.744-.464a1.18 1.18 0 00.27-.27.546.546 0 00.109-.325.619.619 0 00-.14-.377l-.8-1.09a.578.578 0 00-.205-.195.504.504 0 00-.226-.054.502.502 0 00-.254.065l-.265.15a3.41 3.41 0 01-.977.514 3.133 3.133 0 01-.977.168c-.259 0-.516-.044-.773-.135a2.544 2.544 0 01-1.274-.994 2.46 2.46 0 01-.35-.815h5.743c.268 0 .499-.02.697-.059a1.2 1.2 0 00.497-.21.9.9 0 00.297-.416c.071-.218.104-.446.097-.675v-.065a5.012 5.012 0 00-1.49-3.606 5.215 5.215 0 00-1.603-1.075 4.866 4.866 0 00-1.95-.394c-.733 0-1.415.146-2.046.438a5.2 5.2 0 00-1.641 1.187 5.69 5.69 0 00-1.484 3.86c0 .77.138 1.489.415 2.154a5.395 5.395 0 002.824 2.905 5.025 5.025 0 002.062.427zm2.149-6.619h-4.492c.1-.53.392-1.005.821-1.334a2.318 2.318 0 012.203-.339c.251.093.478.221.679.382.406.325.684.782.789 1.291zm7.058 10.582a.615.615 0 00.405-.162 1.34 1.34 0 00.286-.324l5.215-13.357c.036-.1.062-.182.075-.242a.657.657 0 00.023-.146.543.543 0 00-.135-.383c-.09-.098-.247-.146-.471-.146h-1.867c-.359 0-.597.157-.713.475l-2.321 6.338a151.397 151.397 0 01-1.544-4.179l-.82-2.138a.677.677 0 00-.228-.35.68.68 0 00-.454-.146h-1.888c-.39 0-.584.157-.584.475a.746.746 0 00.097.367h-.011l3.93 9.642-1.295 3.531a.904.904 0 00-.043.292c0 .172.057.291.173.355a.842.842 0 00.421.098h1.749z" fill="#111"></path></svg> 