<?xml version="1.0" encoding="UTF-8"?> <svg xmlns="http://www.w3.org/2000/svg" width="93" height="37" fill="none"><g clip-path="url(#clip0_401_4680)"><path fill-rule="evenodd" clip-rule="evenodd" d="M84.276 17.423c-.369.368-1.473 1.35-.982 1.964.368.49 1.717-.369 2.208-.982.736-.86 1.105-2.208 1.105-2.208s-1.473.49-2.331 1.226zm-7.363.368c-.858.737-1.349 1.596-.981 1.964.49.367 1.595-.368 2.208-1.104.737-1.105.982-2.087.982-2.087s-.736.245-2.208 1.227zm-10.061-6.625c2.209-1.35 7.852-6.994 6.503-8.344-1.472-.613-5.398 5.644-6.502 8.344h-.001zm-28.589 9.693c-.859 1.227-1.84 3.19-1.104 3.681.737.614 2.7-1.104 3.313-1.963 1.227-1.473 2.086-3.559 1.35-3.927-1.104-.613-2.945 1.472-3.559 2.208zm-17.546 3.067c2.823-.858 7.362-1.595 8.958-1.718 1.349-2.086 5.52-9.203-.492-11.41l-8.466 13.129v-.001zM8.693 33.129c1.35 1.595 12.515-.123 20-9.448-5.276.86-8.343 1.963-9.447 2.331-2.455 4.049-3.436 5.399-4.418 5.276-1.104-.122.737-2.208 1.718-4.294-4.172 1.226-9.08 4.54-7.853 6.135zM4.399 9.324c7.116-2.575 15.092-4.293 23.312-3.189l.737-1.472c1.717-.246 3.435-.491 5.153-.614L31.27 7.484c2.21.981 4.05 3.312 4.295 5.767 0 3.312-1.472 6.012-3.19 8.589l2.454-.246c1.718-2.7 6.38-6.012 8.22-3.558l.737-.86s2.945-.49 3.068-.49c-2.7 5.03-4.172 6.38-3.805 6.871.369.49 5.4-3.803 7.24-7.484l2.945-.245-1.718 2.944c3.067-2.454 4.049-4.05 5.767-3.436 2.208.982-2.822 6.38-2.208 6.75.49.244 4.54-2.7 6.502-5.646l-2.822.369.982-1.718 2.699-.368C65.379 9.2 73.232-1.227 75.686.244c2.087 1.474-3.189 8.344-10.184 13.376l-.368.735 6.012-.613c.123 0 .123.246 0 .368-1.963 1.596-5.767 5.645-3.68 6.994 1.718.614 4.54-3.558 4.785-4.294-1.595-.49-.368-4.908 1.84-4.294 1.595.49.368 2.576 0 3.435 2.945-.369 5.522-3.312 5.522-3.312 0-2.332 1.472-4.786 3.19-4.173 1.104.614.123 2.208-1.595 4.172-.245.245-.123 1.104-.245 2.208 1.963-.613 4.171-1.595 6.012-2.453.122-2.331 1.227-5.032 3.068-4.417 1.349.367 0 3.19-1.719 4.54 0 2.944.492 5.03-.244 6.502-.86 1.84-3.927 3.313-5.768 2.331-1.84-1.104-.244-3.558.982-4.416.982-.86 3.558-2.086 3.558-2.086s.123-.982.123-1.473c-.982.614-5.89 2.455-5.89 2.455-.244 1.717-.122 2.453-.981 4.048-1.104 2.086-4.54 2.823-5.767 1.718-.737-.736-.491-2.7 1.104-4.049 1.35-.982 3.927-2.086 3.927-2.086s.245-.982.245-1.472c-1.718 1.472-3.681 2.945-6.258 3.068-1.472 3.067-5.521 7.239-8.466 5.275-2.7-1.717 1.718-6.502 2.208-6.87-.98 0-2.822.49-2.822.49l-4.908 9.08h.123s16.687-1.964 32.025-1.964l-1.84 1.718c.858.614 1.717 1.227 2.699 1.718 0 0-15.951-.736-34.233.736l-2.701 5.03-3.312.245 2.822-5.031s-8.222.246-26.503 2.7c.245-.368.245-.368.49-.86 16.32-3.19 27.363-3.925 27.363-3.925l2.453-4.418c-1.718 1.35-5.154 4.295-6.626 2.823-1.104-1.35 2.577-5.644 2.21-5.89-.37-.368-4.786 4.294-6.38 6.748-.983 0-2.7.246-2.7.246l1.35-2.454c-1.473 1.104-2.946 2.331-4.664 2.945-.368.245-1.472.245-1.963-.982 0 0-3.19 2.945-5.398 1.84-1.227-.613-.736-2.822-.491-3.312l-2.577.245C20.104 36.32 5.38 37.791 3.54 34.97c-1.84-3.069 4.908-7.24 14.11-10.185 0 0 8.098-14.723 7.975-14.846C14.338 8.22.35 16.933.35 16.933L4.4 9.325z" fill="#5D5D5D"></path></g><defs><clipPath id="clip0_401_4680"><path fill="#fff" transform="translate(.35)" d="M0 0h92.3v36.196H0z"></path></clipPath></defs></svg> 