<?xml version="1.0" encoding="UTF-8"?> <svg xmlns="http://www.w3.org/2000/svg" width="111" height="37" fill="none"><path d="M36.023 8.726l2.686 9.658h-5.562l2.877-9.658zm-4.88 16.424L28.7 33.162h14.282l-2.298-8.012h-9.542zM68.42 2.935H41v8.604h8.65v21.622h13.92c-.859-.529-6.767-5.219-6.767-13.97 0-7.273 4.416-14.39 11.615-16.257l.002.001zm4.75 22.486c3.235 0 5.832-2.685 5.832-6.078 0-3.373-2.434-6.425-5.71-6.425-3.293 0-5.883 3.052-5.883 6.425 0 3.393 2.43 6.077 5.761 6.077zm28.756-3.486l-5.565-19H82.112V33.16h8.9V14.215h.063l5.516 18.947h14.368V2.935h-8.979v19.001h-.054zm-84.52 11.226l2.572-8.475h-9.534v-2.564h10.314l2.451-8.124H10.444v-2.46h13.474l2.601-8.604H.16v30.227h17.246z" fill="#606060"></path></svg> 