<svg width="85" height="38" fill="none" xmlns="http://www.w3.org/2000/svg"><path fill-rule="evenodd" clip-rule="evenodd" d="M40.681 31.235V28.37h.898c1.267 0 2.654.044 2.654 1.343 0 1.373-1.337 1.523-2.919 1.523h-.633zm0 1.568h1.167l3.507 4.223h3.674l-4.284-4.58c.9-.285 2.775-.837 2.775-2.763 0-2.808-3.798-2.883-5.672-2.883h-3.94c-.416 0-.513.045-.513.315v9.916s.097-.002.512-.002h2.263l.51.002v-4.228h.001zm25.374 2.912c-1.825 0-2.604-1.464-2.604-3.793 0-2.33.779-3.807 2.604-3.807 1.825 0 2.604 1.462 2.604 3.806 0 2.329-.78 3.793-2.604 3.793zm6.06-3.793c0-3.613-2.312-5.375-6.06-5.375-3.75 0-6.061 1.748-6.061 5.373 0 3.615 2.287 5.362 6.06 5.362 3.772 0 6.061-1.747 6.061-5.361zm-42.14.567h4.604v-1.612h-4.604v-2.462h5.136l.699-1.615h-8.651c-.338.003-.45.044-.47.236v9.99l9.004.003v-1.3l.003-.314h-5.721V32.49zm54.514-5.69H82.2s.062 6.175.062 6.653l-5.49-6.457c-.146-.163-.194-.195-.56-.195h-1.996l-.057.002c-.316.002-.43.042-.453.22v10.01s.098-.003.51-.003h1.778c.413 0 .51.002.51.002V31.34c0-.686-.02-1.14-.02-1.335 0 0 5.612 6.565 5.838 6.814.225.252.56.211.56.211h1.606l.511.007V26.799h-.511zM3.286 32.49H7.89v-1.612H3.286v-2.462h5.135l.7-1.615H.471c-.366.003-.465.052-.472.288v9.938l9.005.003v-1.3l.002-.314h-5.72V32.49zm14.42.673l-3.909-6.086c-.145-.164-.194-.194-.559-.194h-1.996l-.51.003v10.226s.096-.003.51-.003h1.777c.413 0 .51.003.51.003v-5.69c0-.687-.019-.957-.019-1.15 0 0 3.856 6.175 4.238 6.61h.021c.385-.439 4.042-6.61 4.042-6.61 0 .193-.023.463-.023 1.15v5.69s.1-.003.513-.003h1.777c.413 0 .511.003.511.003V26.885l-.511-.003H22.08c-.366 0-.412.029-.559.194l-3.71 6.086h-.106zm39.573-1.645c-2.026-.97-4.786-1.058-4.786-2.192 0-.896.898-1.164 1.957-1.164 1.657 0 3.084.655 3.223.655.09 0 .184-.059.252-.148l.157-.202.823-1.05h.001l-.022-.01a6.6 6.6 0 00-.71-.282c-.82-.274-2.335-.577-3.815-.577-2.671 0-5.065.897-5.065 3.047 0 1.238.566 2.021 1.786 2.5 2.35.926 4.705.873 4.705 2.202 0 .925-.575 1.373-1.864 1.373-1.98 0-3.684-.656-3.82-.656a.308.308 0 00-.255.15l-.252.468-.442.818.36.136c.735.291 2.653.697 4.5.697 2.9 0 5.026-.95 4.972-3.15-.026-1.134-.532-2.048-1.705-2.615z" fill="#414141"/><path d="M45.418 19.88a.218.218 0 00.011-.158c-.044-.115-.163-.277-.316-.468l-.07-.087-3.666-4.49-.022-.028-3.55-4.348c-.684-.82-.625-.981-.592-1.064l-1.297 2.185c-.054.103.088.337.312.614l.069.087 3.667 4.49.022.028 3.551 4.35c.655.783.66.94.605 1.038l1.275-2.148h.001z" fill="url(#paint0_linear_405_6634)"/><path d="M50.588 10.016l-.07-.087-3.666-4.492-.021-.027-3.553-4.349C42.596.245 42.655.082 42.69 0l-1.286 2.163a.218.218 0 00-.012.146c.036.122.154.295.311.49l.069.086 3.668 4.492.02.026 3.553 4.35c.654.782.659.94.604 1.038l1.294-2.176c.053-.104-.1-.321-.322-.599z" fill="url(#paint1_linear_405_6634)"/><path d="M48.764 13.095l-.07-.09-3.668-4.488-.022-.027-3.552-4.35c-.681-.817-.622-.98-.59-1.063L39.579 5.24a.218.218 0 00-.013.144c.037.122.154.296.313.493l.069.086 3.666 4.492.023.025 3.551 4.351c.654.782.66.94.604 1.037l1.295-2.176c.054-.103-.1-.321-.322-.598z" fill="url(#paint2_linear_405_6634)"/><path d="M41.81 13.562l3.552 4.35c.683.818.66.953.597 1.05l1.301-2.188c.053-.104-.1-.322-.322-.599l-.07-.086-3.667-4.492-.021-.028-3.553-4.348c-.682-.818-.622-.98-.589-1.063l-1.297 2.186c-.054.103.088.337.313.613l.07.087 3.665 4.492.022.026h-.001z" fill="url(#paint3_linear_405_6634)"/><path d="M43.587 22.97s.046-.061.018-.166c-.042-.117-.163-.28-.316-.47l-.07-.087-3.667-4.491-.022-.028-3.552-4.348c-.683-.818-.623-.981-.59-1.065l-1.297 2.188c-.055.103.088.337.311.613l.07.086 3.666 4.492.022.027 3.553 4.351c.652.782.658.94.604 1.037l1.27-2.138z" fill="url(#paint4_linear_405_6634)"/><path d="M46.113 16.58l-4.9-2.039-.03-.01-5.062-2.107-.077-.032c-.155-.054-.497-.16-.64-.08a.096.096 0 00-.039.041l-1.273 2.15c.055-.067.21-.192 1.136.208l4.902 2.04.03.01 5.06 2.106.072.029c.153.055.5.166.646.084a.375.375 0 00.061-.072l1.251-2.119c-.054.067-.21.19-1.137-.21z" fill="url(#paint5_linear_405_6634)"/><path d="M47.939 13.5l-4.902-2.038-.03-.012-5.061-2.105-.078-.031c-.156-.056-.497-.162-.64-.081a.1.1 0 00-.038.041l-1.275 2.15c.056-.067.21-.191 1.137.208l4.902 2.039.029.012 5.06 2.105.074.029c.152.055.5.165.644.083a.372.372 0 00.063-.071l1.25-2.12c-.055.067-.21.191-1.135-.208z" fill="url(#paint6_linear_405_6634)"/><path d="M49.745 10.447L44.842 8.41l-.03-.013-5.06-2.105-.078-.03c-.157-.056-.497-.163-.64-.082a.1.1 0 00-.038.041l-1.275 2.15c.055-.067.21-.191 1.137.208l4.902 2.039.029.012 5.06 2.105.074.029c.152.055.5.165.644.083a.372.372 0 00.062-.07l1.251-2.121c-.055.067-.21.191-1.135-.208z" fill="url(#paint7_linear_405_6634)"/><defs><linearGradient id="paint0_linear_405_6634" x1="35.52" y1="12.737" x2="46.001" y2="12.734" gradientUnits="userSpaceOnUse"><stop stop-color="#898D92"/><stop offset=".484" stop-color="#fff"/><stop offset="1" stop-color="#898D92"/></linearGradient><linearGradient id="paint1_linear_405_6634" x1="41.001" y1="3.5" x2="51.001" y2="3.5" gradientUnits="userSpaceOnUse"><stop stop-color="#898D92"/><stop offset=".655" stop-color="#fff"/><stop offset="1" stop-color="#898D92"/></linearGradient><linearGradient id="paint2_linear_405_6634" x1="39.174" y1="6.577" x2="49" y2="6.501" gradientUnits="userSpaceOnUse"><stop stop-color="#898D92"/><stop offset=".633" stop-color="#fff"/><stop offset="1" stop-color="#898D92"/></linearGradient><linearGradient id="paint3_linear_405_6634" x1="37.345" y1="9.661" x2="47.5" y2="9.656" gradientUnits="userSpaceOnUse"><stop stop-color="#898D92"/><stop offset=".569" stop-color="#fff"/><stop offset="1" stop-color="#898D92"/></linearGradient><linearGradient id="paint4_linear_405_6634" x1="33.695" y1="15.816" x2="45" y2="15.812" gradientUnits="userSpaceOnUse"><stop stop-color="#898D92"/><stop offset=".484" stop-color="#fff"/><stop offset="1" stop-color="#898D92"/></linearGradient><linearGradient id="paint5_linear_405_6634" x1="35.871" y1="16.133" x2="43.372" y2="12.135" gradientUnits="userSpaceOnUse"><stop stop-color="#414141"/><stop offset=".598" stop-color="#D2D2D2"/><stop offset="1" stop-color="#414141"/></linearGradient><linearGradient id="paint6_linear_405_6634" x1="37.695" y1="13.054" x2="45.195" y2="9.055" gradientUnits="userSpaceOnUse"><stop stop-color="#414141"/><stop offset=".622" stop-color="#D2D2D2"/><stop offset="1" stop-color="#414141"/></linearGradient><linearGradient id="paint7_linear_405_6634" x1="39.501" y1="10" x2="47.001" y2="6.001" gradientUnits="userSpaceOnUse"><stop stop-color="#414141"/><stop offset=".484" stop-color="#D2D2D2"/><stop offset="1" stop-color="#414141"/></linearGradient></defs></svg>