<?xml version="1.0" encoding="UTF-8"?> <svg xmlns="http://www.w3.org/2000/svg" width="83" height="49" fill="none"><path fill-rule="evenodd" clip-rule="evenodd" d="M.608 30.426h4.547v1.02H1.794v2.703h2.718v1.019H1.794v3.104h3.53v1.031H.607v-8.877zm6.168 2.422h.862l.167.8c.566-.568 1.213-.967 1.972-.967.929 0 1.558.477 1.558 1.573v5.05h-1.109V34.6c0-.736-.204-.941-.785-.941-.513 0-1.093.36-1.558.772v4.871H6.776v-6.456.001zm9.996 4.973v-3.49c-.376-.362-.89-.698-1.432-.698-.914 0-1.313.336-1.313 2.41 0 2.075.335 2.474 1.209 2.474.631 0 1.071-.259 1.536-.696zm-3.93-1.7c0-2.422.706-3.44 2.216-3.44.707 0 1.3.388 1.714.785v-3.49h1.106v9.327h-.864l-.18-.668c-.49.54-1.108.835-1.79.835-1.236 0-2.202-.696-2.202-3.35zm6.886-3.273h.863l.18.916c.478-.594 1.07-1.032 1.819-1.032.074 0 .18.012.232.04l-.13 1.185a1.241 1.241 0 00-.384-.052c-.595 0-.995.219-1.472.656v4.742h-1.108v-6.456.001zm4.944 2.64h2.563c0-1.48-.335-1.931-1.263-1.931-.745 0-1.21.386-1.3 1.932zm-1.198.58c0-2.447 1.003-3.387 2.525-3.387 1.532 0 2.41.877 2.41 3.208v.437h-3.75c.024 1.766.412 2.204 1.482 2.204.696 0 1.093-.272 1.52-.605l.607.797c-.633.516-1.213.748-2.153.748-1.688 0-2.64-.98-2.64-3.402zm5.797 2.706l.465-.823c.54.373 1.095.592 1.725.592.876 0 1.147-.348 1.147-.954 0-.722-.334-.863-1.365-1.147-.904-.245-1.65-.72-1.65-1.996 0-.941.606-1.765 2.022-1.765.774 0 1.316.155 1.792.425l-.387.875c-.542-.27-.877-.36-1.365-.36-.696 0-1.019.244-1.019.799 0 .607.271.76 1.16 1.006.993.27 1.893.656 1.893 2.112 0 1.338-.758 1.932-2.279 1.932-.863 0-1.689-.334-2.139-.696zm5.27 0l.465-.823c.54.373 1.093.592 1.725.592.874 0 1.145-.348 1.145-.954 0-.722-.334-.863-1.364-1.147-.903-.245-1.65-.72-1.65-1.996 0-.941.605-1.765 2.022-1.765.773 0 1.316.155 1.792.425l-.387.875c-.539-.27-.877-.36-1.364-.36-.696 0-1.02.244-1.02.799 0 .607.273.76 1.161 1.006.992.27 1.893.656 1.893 2.112 0 1.338-.76 1.932-2.279 1.932-.864 0-1.688-.334-2.139-.696zm8.45-2.756h-2.073v-.966h2.073v-2.28h1.043v2.28h2.063v.966h-2.063v2.28h-1.043v-2.28zm5.644-5.592h1.186v3.635h3.194v-3.634h1.183v8.877h-1.183v-4.203H49.82v4.201h-1.185v-8.877zM59.22 37.82v-1.713h-.386c-1.624 0-1.932.411-1.932 1.352 0 .85.27 1.134.901 1.134.63 0 1.109-.425 1.417-.773zm-3.505-.36c0-1.47.865-2.152 2.977-2.152h.528v-.503c0-.72-.09-1.159-.929-1.159-.669 0-1.313.285-1.879.592l-.426-.85c.657-.386 1.391-.708 2.423-.708 1.262 0 1.92.567 1.92 1.945v4.677h-.864l-.18-.644c-.373.413-.916.811-1.623.811-1.238 0-1.948-.682-1.948-2.01h.001zm6.309.36v-4.973h1.106v4.626c0 .76.256 1.016.837 1.016.515 0 1.07-.346 1.546-.772v-4.87h1.108v6.455h-.863l-.167-.799c-.543.554-1.16.966-1.92.966-.929 0-1.647-.53-1.647-1.65zm5.899.953l.463-.823c.541.373 1.095.592 1.726.592.877 0 1.146-.348 1.146-.954 0-.722-.334-.863-1.365-1.147-.9-.245-1.647-.72-1.647-1.996 0-.941.606-1.765 2.022-1.765.77 0 1.313.155 1.79.425l-.386.875c-.54-.27-.876-.36-1.367-.36-.694 0-1.018.244-1.018.799 0 .607.272.76 1.16 1.006.993.27 1.895.656 1.895 2.112 0 1.338-.76 1.932-2.282 1.932-.862 0-1.688-.334-2.137-.696zm6.685-3.285h2.564c0-1.481-.334-1.932-1.261-1.932-.748 0-1.213.386-1.303 1.932zm-1.198.58c0-2.448 1.005-3.388 2.527-3.388 1.532 0 2.406.877 2.406 3.208v.437h-3.746c.026 1.766.412 2.204 1.48 2.204.696 0 1.095-.272 1.52-.605l.608.797c-.632.516-1.213.748-2.154.748-1.687 0-2.64-.98-2.64-3.402zm6.347-3.22h.862l.18.915c.48-.594 1.071-1.032 1.818-1.032.078 0 .18.012.23.04l-.126 1.185a1.27 1.27 0 00-.386-.052c-.592 0-.993.219-1.47.656v4.742h-1.108v-6.456.001zM11.363 46.135c.478 0 .712-.228.712-.797 0-.557-.216-.779-.753-.779h-.557v1.576h.598zm-.931-1.862h.913c.73 0 1.086.376 1.086 1.05 0 .712-.356 1.093-1.03 1.093h-.636v1.501h-.334v-3.644zm4.015 2.174c0-.648-.19-.858-.584-.858-.357 0-.588.195-.626.858h1.21zm-.52 1.252a.947.947 0 00.632-.228l.173.223a1.188 1.188 0 01-.805.276c-.604 0-1.03-.34-1.03-1.317 0-.964.41-1.326.97-1.326.59 0 .908.372.908 1.239v.13h-1.544c.012.77.218 1.003.695 1.003zm3.096-1.04c0-.8-.238-1.078-.679-1.078-.438 0-.673.263-.673 1.062 0 .802.24 1.072.678 1.072.441 0 .674-.26.674-1.055zm-1.684-.006c0-.943.41-1.326 1.002-1.326.582 0 1.018.378 1.018 1.322 0 .939-.413 1.321-1.01 1.321-.587 0-1.011-.376-1.011-1.317zm4.332.022c0-.849-.19-1.072-.572-1.072-.293 0-.504.181-.691.351v1.427c.185.186.406.313.66.313.396 0 .603-.234.603-1.02zm-1.58-1.294h.223l.073.34c.19-.213.458-.394.759-.394.504 0 .86.357.86 1.322 0 .911-.31 1.321-.881 1.321-.319 0-.553-.164-.719-.335V49h-.314v-3.618zm2.667 2.079v-3.336h.319v3.368c0 .16.063.207.182.207.067 0 .11-.016.11-.016l.052.229a.723.723 0 01-.248.047c-.25 0-.415-.127-.415-.499zm2.67-1.013c0-.648-.192-.858-.585-.858-.355 0-.587.195-.626.858h1.21zm-.522 1.252a.941.941 0 00.631-.228l.175.223a1.189 1.189 0 01-.806.276c-.603 0-1.028-.34-1.028-1.317 0-.964.409-1.326.972-1.326.587 0 .904.372.904 1.239v.13h-1.542c.01.77.218 1.003.694 1.003zm2.478-2.057v-.261h.3v-.626c0-.48.273-.669.603-.669.2 0 .349.038.498.133l-.12.235a.7.7 0 00-.347-.096c-.2 0-.312.121-.312.402v.62h.515v.26h-.515v2.277h-.321v-2.275h-.301zm3.237 1.018c0-.801-.239-1.079-.68-1.079-.44 0-.673.263-.673 1.062 0 .802.237 1.072.678 1.072.441 0 .675-.26.675-1.055zm-1.688-.008c0-.942.415-1.325 1.003-1.325.582 0 1.02.378 1.02 1.322 0 .939-.415 1.321-1.01 1.321-.59 0-1.013-.376-1.013-1.317zm2.753-1.271h.224l.075.43c.21-.26.466-.466.768-.466l.079.01-.03.339-.114-.016c-.26 0-.454.134-.683.376v1.863h-.319V45.38v.002zm3.88.754c.475 0 .709-.228.709-.797 0-.557-.218-.779-.753-.779h-.556v1.576h.6zm-.935-1.862h.913c.73 0 1.086.376 1.086 1.05 0 .712-.355 1.093-1.028 1.093h-.636v1.501h-.335v-3.644zm2.711 1.108h.222l.076.43c.211-.26.466-.466.767-.466l.081.01-.033.339-.11-.016c-.26 0-.458.134-.684.376v1.863h-.319V45.38v.002zm3.251 1.279c0-.801-.24-1.079-.678-1.079-.441 0-.674.263-.674 1.062 0 .802.24 1.072.677 1.072.443 0 .675-.26.675-1.055zm-1.685-.008c0-.942.412-1.325 1.003-1.325.582 0 1.018.378 1.018 1.322 0 .939-.416 1.321-1.01 1.321-.589 0-1.011-.376-1.011-1.317zm2.586 0c0-.958.415-1.325.993-1.325a.928.928 0 01.712.298l-.19.219c-.15-.161-.282-.245-.532-.245-.42 0-.649.232-.649 1.044 0 .813.224 1.056.675 1.056.271 0 .413-.128.535-.254l.208.196a.956.956 0 01-.759.33c-.582 0-.993-.367-.993-1.319zm3.747-.205c0-.648-.192-.858-.582-.858-.358 0-.59.195-.629.858h1.211zm-.52 1.252a.94.94 0 00.63-.228l.176.223a1.195 1.195 0 01-.805.276c-.606 0-1.031-.34-1.031-1.317 0-.964.408-1.326.972-1.326.587 0 .904.372.904 1.239v.13h-1.54c.01.77.217 1.003.695 1.003zm1.31-.005l.136-.228c.196.153.437.237.686.238.377 0 .53-.17.53-.443 0-.31-.138-.4-.573-.538-.375-.116-.656-.292-.656-.748 0-.355.244-.648.747-.648.308 0 .515.077.69.176l-.118.25a1.068 1.068 0 00-.566-.154c-.287 0-.452.117-.452.371 0 .275.126.35.483.467.425.137.754.28.754.805 0 .495-.313.728-.843.728a1.33 1.33 0 01-.817-.276h-.002zm2.09 0l.14-.228c.195.153.435.237.683.238.376 0 .53-.17.53-.443 0-.31-.138-.4-.572-.538-.377-.116-.659-.292-.659-.748 0-.355.243-.648.748-.648.308 0 .514.077.689.176l-.115.25a1.078 1.078 0 00-.57-.154c-.285 0-.45.117-.45.371 0 .275.128.35.482.467.426.137.755.28.755.805 0 .495-.313.728-.845.728a1.325 1.325 0 01-.816-.276zm4.758-2.271a6.572 6.572 0 01-.196-.829h-.012c-.05.28-.119.557-.204.829l-.319 1.034h1.038l-.307-1.034zm-1.183 2.494h-.338l1.14-3.644h.365l1.114 3.644h-.36l-.347-1.174h-1.213l-.36 1.174zm2.817-.615V45.38h.314v1.836c0 .344.139.473.391.473.257 0 .5-.15.732-.34V45.38h.319v2.537h-.228l-.073-.34c-.24.228-.5.393-.814.393-.365 0-.642-.22-.642-.669v.002zm2.397-1.66v-.261h.31v-.67l.313-.074v.744h.528v.26h-.528v1.835c0 .155.068.234.212.234a.657.657 0 00.295-.075l.08.235a.815.815 0 01-.391.099c-.288 0-.51-.131-.51-.477v-1.85h-.309zm3.374 1.018c0-.801-.238-1.079-.679-1.079-.438 0-.671.263-.671 1.062 0 .802.238 1.072.676 1.072.44 0 .674-.26.674-1.055zm-1.685-.008c0-.942.413-1.325 1.001-1.325.585 0 1.02.378 1.02 1.322 0 .939-.414 1.321-1.01 1.321-.587 0-1.012-.376-1.012-1.317h.001zm2.754-1.271h.221l.073.35c.24-.228.478-.404.78-.404.283 0 .475.149.564.394.259-.235.505-.394.79-.394.35 0 .595.208.595.648v1.942h-.32v-1.856c0-.336-.105-.451-.343-.451-.241 0-.467.137-.691.334v1.973h-.318v-1.856c0-.336-.107-.451-.346-.451-.244 0-.46.153-.687.35v1.957h-.319V45.38v.002zm5.16 1.252h-.292c-.637 0-.806.17-.806.58 0 .347.143.491.446.491.3 0 .52-.186.652-.35v-.721zm0-.53c0-.319-.08-.5-.42-.5-.28 0-.525.107-.759.256l-.127-.234c.25-.164.521-.298.912-.298.471 0 .713.23.713.733v1.857h-.223l-.082-.308c-.136.163-.374.361-.705.361-.464 0-.743-.271-.743-.763 0-.554.33-.817 1.108-.817h.326v-.287zm.939-.461v-.261h.308v-.67l.311-.074v.744h.53v.26h-.53v1.835c0 .155.07.234.213.234.134 0 .228-.043.299-.075l.078.235a.823.823 0 01-.392.099c-.287 0-.509-.131-.509-.477v-1.85h-.31.002zm1.925-1.08c0-.149.102-.256.246-.256.145 0 .248.107.248.255a.244.244 0 01-.152.232.242.242 0 01-.096.018.242.242 0 01-.248-.25l.002.001zm.145 1.069l-.329-.05v-.2h.62v2.536h-.291v-2.286zm2.69 1.029c0-.801-.24-1.079-.68-1.079-.44 0-.674.263-.674 1.062 0 .802.239 1.072.68 1.072.438 0 .673-.26.673-1.055zm-1.689-.008c0-.942.413-1.325 1.002-1.325.582 0 1.018.378 1.018 1.322 0 .939-.415 1.321-1.005 1.321-.59 0-1.015-.376-1.015-1.317zm2.755-1.271h.221l.075.366c.247-.244.514-.42.827-.42.36 0 .625.213.625.654v1.936h-.318v-1.852c0-.34-.123-.455-.382-.455-.254 0-.503.163-.732.365v1.942h-.316V45.38" fill="#1A1919"></path><path fill-rule="evenodd" clip-rule="evenodd" d="M61.628.094A2.806 2.806 0 0060.903 0h-33.59a2.79 2.79 0 00-2.695 2.068l-4.76 17.762a2.791 2.791 0 002.695 3.513h33.592a2.786 2.786 0 002.693-2.069l4.76-17.764a2.787 2.787 0 00-1.97-3.416" fill="#787878"></path><path fill-rule="evenodd" clip-rule="evenodd" d="M40.892 21.112h-13.58a.56.56 0 01-.558-.559V2.79a.56.56 0 01.558-.559h13.58l-1.37 5.115h-6.72v1.767h4.609l-1.37 5.115h-3.24v1.767h8.091v5.115" fill="#FFFFFE"></path><path fill-rule="evenodd" clip-rule="evenodd" d="M56.704 20.554a.557.557 0 01-.558.558h-5.489v-6.883h-1.86v6.884h-6.043v-6.884h-5.078l1.373-5.114h3.703V2.232h6.045v6.883h1.86V2.232h5.49a.56.56 0 01.557.558v17.764z" fill="#FFFFFE"></path></svg> 