<?xml version="1.0" encoding="UTF-8"?> <svg xmlns="http://www.w3.org/2000/svg" width="57" height="18" fill="none"><path d="M0 0h9.83v2.96H3.348v4.38h6.014v2.946H3.348v7.393H0V0zm14.379 12.938c.027.5.16.946.402 1.339.24.393.589.7 1.044.924.465.223 1.018.335 1.661.335.58 0 1.09-.072 1.527-.215a4.388 4.388 0 001.125-.522c.312-.214.544-.42.696-.616l1.407 2.09a4.08 4.08 0 01-1.005.87c-.41.259-.938.464-1.58.616-.634.16-1.429.241-2.384.241-1.206 0-2.264-.237-3.174-.71a5.12 5.12 0 01-2.13-2.049c-.509-.893-.763-1.955-.763-3.187 0-1.072.227-2.036.683-2.893a5.032 5.032 0 011.982-2.05c.875-.5 1.924-.75 3.147-.75 1.152 0 2.148.224 2.987.67a4.61 4.61 0 011.969 1.929c.464.848.696 1.884.696 3.107 0 .071-.004.219-.013.442 0 .214-.01.357-.027.428h-8.25zm5.103-2.103c-.01-.286-.099-.594-.268-.924a2.142 2.142 0 00-.764-.844c-.348-.232-.812-.348-1.392-.348-.58 0-1.059.111-1.434.335-.366.223-.642.5-.83.83a2.27 2.27 0 00-.321.95h5.009zm10.091-4.473c.661 0 1.273.062 1.835.187.563.116 1.036.25 1.42.402.393.152.652.281.777.388l-1.166 2.05c-.178-.143-.5-.313-.964-.51a3.817 3.817 0 00-1.527-.294c-.509 0-.937.09-1.285.268-.349.17-.523.428-.523.776 0 .349.188.626.563.83.375.206.897.385 1.567.537a8.18 8.18 0 011.66.535c.545.232.996.572 1.353 1.018.357.438.536 1.022.536 1.755 0 .723-.156 1.325-.469 1.808-.303.473-.71.848-1.219 1.125a5.732 5.732 0 01-1.674.589A9.608 9.608 0 0128.65 18c-.777 0-1.46-.076-2.049-.228-.59-.142-1.076-.308-1.46-.495-.375-.197-.643-.362-.803-.496l1.165-2.276c.232.205.611.432 1.138.682a4.16 4.16 0 001.728.362c.643 0 1.147-.111 1.513-.335.375-.223.563-.522.563-.897 0-.277-.09-.5-.268-.67a2.029 2.029 0 00-.737-.442 7.902 7.902 0 00-1.098-.308 7.933 7.933 0 01-1.178-.348 4.969 4.969 0 01-1.125-.63 3.023 3.023 0 01-.844-.964c-.214-.393-.322-.861-.322-1.406 0-.696.224-1.277.67-1.741.446-.473 1.027-.83 1.741-1.071a6.884 6.884 0 012.29-.375zm5.507.321h1.982V2.17h3.375v4.513h2.598v2.826h-2.598v3.978c0 .526.085.937.255 1.232.17.286.437.428.803.428.277 0 .505-.053.683-.16.179-.117.286-.197.322-.242l1.205 2.438c-.053.054-.228.147-.522.281a5.811 5.811 0 01-1.112.362 6.02 6.02 0 01-1.513.174c-1.01 0-1.844-.29-2.505-.87-.66-.59-.99-1.5-.99-2.733V9.51H35.08V6.683zM50.806 18c-1.17 0-2.215-.25-3.134-.75a5.566 5.566 0 01-2.143-2.05c-.518-.874-.777-1.87-.777-2.986s.259-2.111.777-2.986a5.603 5.603 0 012.143-2.09c.92-.517 1.964-.776 3.134-.776 1.178 0 2.218.259 3.12.776a5.531 5.531 0 012.116 2.09c.51.875.764 1.87.764 2.986s-.255 2.112-.764 2.987a5.493 5.493 0 01-2.116 2.049c-.902.5-1.942.75-3.12.75zm0-2.826c.562 0 1.049-.125 1.46-.375.42-.259.74-.611.964-1.058.232-.455.348-.969.348-1.54a3.34 3.34 0 00-.348-1.54 2.548 2.548 0 00-.965-1.072c-.41-.268-.897-.402-1.46-.402-.562 0-1.053.134-1.473.402a2.68 2.68 0 00-.964 1.072 3.343 3.343 0 00-.348 1.54c0 .571.116 1.085.348 1.54.232.447.554.8.964 1.058.42.25.911.375 1.474.375z" fill="#000"></path></svg> 