<?xml version="1.0" encoding="UTF-8"?> <svg xmlns="http://www.w3.org/2000/svg" width="110" height="32" fill="none"><path d="M12.178 31.639H0l6.09-10.546h12.178l-6.09 10.546z" fill="#5B5B5B"></path><path d="M24.355 31.639h12.181l-6.089-10.546h-12.18l6.088 10.546zm0-21.093L18.267 0l-6.09 10.546 6.09 10.546 6.088-10.546z" fill="#5B5B5B"></path><path d="M42.003 27.15h4.877v-1.77h-4.877v-2.175h5.486v-1.77h-7.553V31.64h7.698v-1.77h-5.631v-2.72zm-.144-15l2.167 7.585h1.986l2.167-7.584v7.584h1.925V9.533h-2.948l-2.136 7.16-2.136-7.16h-2.95v10.202h1.926V12.15zm46.967-2.617H86.77v10.202h2.056V9.533zM90.5 21.435h-2.055V31.64H90.5V21.435zm18.652-11.902h-2.056v10.202h2.056V9.533zm-56.174 0h-2.055v10.202h2.055V9.533zm51.246 3.979h-4.084v-3.98h-2.023v10.202h2.023V15.28h4.084v4.454h2.023v-10.2h-2.023v3.978zm-48.207 6.223h2.1V11.3h2.492V9.533h-7.084V11.3h2.492v8.435zm18.746 11.904h2.097v-8.434h2.493v-1.77H72.27v1.77h2.494v8.434zm-1.404-11.62c2.618 0 4.07-1.192 4.07-3.47V9.534h-2.055v7.203c0 .876-.738 1.61-2.015 1.61-1.545 0-2-.866-2-1.61V9.533h-2.02v7.017c0 2.452 1.522 3.469 4.02 3.469zm-15.532 7.13h4.88v-1.768h-4.88v-2.176h5.489v-1.77h-7.554V31.64h7.697v-1.77h-5.632v-2.72zM82.76 11.153c.563 0 1.19.524 1.19 1.21 0 .61-.44 1.284-1.304 1.284h-2.447v-2.494h2.561zm-.151 7.04h-2.41v-2.958h2.386c.859 0 1.585.493 1.585 1.482 0 .838-.66 1.476-1.561 1.476zm-2.33 1.542h2.944c1.92 0 3.064-1.148 3.064-2.754 0-1.3-.942-2.412-1.968-2.668.897-.229 1.618-1.144 1.618-2.27 0-1.505-1.112-2.51-3.18-2.51h-4.6v10.202h2.121zm1.647 6.233V23.19h2.487c.84 0 1.4.59 1.4 1.395 0 .567-.498 1.382-1.338 1.382h-2.55zm4.095.774c.874-.264 1.815-1.05 1.815-2.465 0-1.814-1.23-2.855-3.32-2.855h-4.66v10.203h2.069v-4.02h1.753c1.062 0 1.639.55 1.814 1.277.19.801.141 1.997.346 2.743h2.077c-.202-.781-.32-1.844-.365-2.682-.076-1.381-.802-1.932-1.53-2.201zm-35.659-5.306h-2.065V31.64h6.875v-1.77h-4.809v-8.434zm13.697-6.012c1.656.289 2.599.594 2.599 1.582 0 .67-.664 1.304-2.036 1.304-1.375 0-2.08-.78-2.08-1.707h-1.98c0 1.774 1.15 3.396 4.148 3.396 2.854 0 4.091-1.51 4.091-3.235 0-1.608-1.053-2.628-2.937-2.998-1.812-.355-3.055-.432-3.055-1.58 0-.788.722-1.253 1.83-1.253 1.177 0 1.854.579 1.854 1.557h1.996c0-1.61-1.22-3.267-3.933-3.267-1.872 0-3.813 1.079-3.813 3.095 0 1.694 1.245 2.743 3.316 3.106zm28.765 0c1.654.289 2.595.594 2.595 1.582 0 .67-.66 1.304-2.034 1.304-1.373 0-2.08-.78-2.08-1.707h-1.979c0 1.774 1.15 3.396 4.147 3.396 2.853 0 4.092-1.51 4.092-3.235 0-1.608-1.053-2.628-2.938-2.998-1.811-.355-3.052-.432-3.052-1.58 0-.788.719-1.253 1.827-1.253 1.176 0 1.854.579 1.854 1.557h1.997c0-1.61-1.221-3.267-3.933-3.267-1.872 0-3.814 1.079-3.814 3.095 0 1.694 1.246 2.743 3.318 3.106" fill="#221E1F"></path><path d="M68.111 30.062c-1.663 0-2.632-1.628-2.632-3.568 0-1.939.935-3.57 2.632-3.57 1.26 0 1.91.786 2.19 1.746h2.14c-.35-1.998-1.913-3.481-4.389-3.481-3.121 0-4.699 2.388-4.699 5.334 0 2.948 1.643 5.334 4.699 5.334 2.446 0 4.098-1.421 4.402-3.6H70.3c-.28 1.025-.95 1.805-2.189 1.805zm27.648 0c-1.662 0-2.631-1.628-2.631-3.568 0-1.939.934-3.57 2.631-3.57 1.263 0 1.91.786 2.19 1.746h2.14c-.352-1.998-1.913-3.481-4.389-3.481-3.122 0-4.7 2.388-4.7 5.334 0 2.948 1.644 5.334 4.7 5.334 2.447 0 4.097-1.421 4.402-3.6h-2.153c-.28 1.025-.953 1.805-2.19 1.805" fill="#221E1F"></path></svg> 