<?xml version="1.0" encoding="UTF-8"?> <svg xmlns="http://www.w3.org/2000/svg" width="128" height="26" fill="none"><path fill-rule="evenodd" clip-rule="evenodd" d="M12.878 25.846C5.797 25.846 0 20.05 0 12.866 0 5.796 5.797 0 12.878 0c7.172 0 12.968 5.796 12.968 12.865 0 7.185-5.796 12.981-12.968 12.981zm0-5.41c4.216 0 7.557-3.342 7.557-7.57 0-4.126-3.341-7.468-7.557-7.468a7.468 7.468 0 00-7.48 7.467c0 4.229 3.342 7.57 7.48 7.57v.001zm79.415 5.41c-7.082 0-12.878-5.796-12.878-12.98C79.415 5.796 85.211 0 92.293 0c7.172 0 12.968 5.796 12.968 12.865 0 7.185-5.796 12.981-12.968 12.981zm0-5.41c4.216 0 7.557-3.342 7.557-7.57 0-4.126-3.341-7.468-7.557-7.468a7.468 7.468 0 00-7.48 7.467c0 4.229 3.342 7.57 7.48 7.57v.001zM27.324.784v24.47h5.398V5.309h6.002v19.946h5.398V5.308h2.07c2.159 0 3.83 1.67 3.83 3.727v16.22h5.41V9.228c0-4.807-3.83-8.65-8.65-8.65H32.826c-1.863 0-3.74 0-5.5.206h-.002zm79.415 0v24.47h5.398V5.309h6.105c2.056 0 3.83 1.67 3.83 3.727v16.22h5.398V9.228c0-4.807-3.83-8.65-8.65-8.65h-6.683c-1.76 0-3.637 0-5.398.206zm-49.045 0v24.47h5.399V5.309h6.387c2.172 0 3.843 1.67 3.843 3.727 0 2.16-1.67 3.83-3.843 3.83h-4.614l8.354 12.39h6.683l-6.092-8.945c2.944-1.08 4.91-3.933 4.91-7.275 0-4.614-3.727-8.457-8.457-8.457h-7.171c-1.864 0-3.638 0-5.399.206" fill="#5D5D5D"></path></svg> 