<?xml version="1.0" encoding="UTF-8"?> <svg xmlns="http://www.w3.org/2000/svg" width="111" height="28" fill="none"><path d="M74.57 12.998V.013h3.816l5.59 5.829V.013h4.474v12.985h-3.585l-5.816-5.815v5.815h-4.48.001zm-33.35 0V.013h4.473v4.488h4.031V.013h4.488v12.985h-4.488V8.086h-4.03v4.912H41.22zM95.208 0h4.7l2.682 3.36L105.285 0h4.7l-4.926 6.267 5.603 6.718h-5.377l-2.695-3.572-2.682 3.572H94.53l5.59-6.718L95.207 0h.001zm-56.39 15.162c-1.075-.663-2.56-.81-3.92-.81-3.824 0-6.939 2.789-6.939 6.493 0 3.691 3.115 6.493 6.939 6.493 1.439 0 2.719-.186 3.857-.903v-3.572c-.57 1.062-1.644 1.341-2.908 1.341a3.362 3.362 0 01-3.351-3.359c0-1.845 1.501-3.372 3.351-3.372 1.2 0 2.308.385 2.908 1.34v-3.57l.063-.08v-.001zm14.73 12.176V14.353h3.81l5.594 5.828v-5.828h4.473v12.985h-3.587l-5.817-5.816v5.816h-4.473zm18.112 0v-9.626h-3.365v-3.36h11.206v3.36h-3.373v9.626H71.66zm26.429-9.626h-.173c-1.646.186-2.801 1.633-2.801 3.346 0 1.858 1.5 3.146 3.359 3.146 1.261 0 2.337-.279 2.908-1.34v3.57c-1.142.718-2.43.904-3.864.904-3.824 0-6.93-2.576-6.93-6.28 0-3.692 3.106-6.705 6.93-6.705h13.184v3.359h-3.372v9.626h-4.461v-9.626h-4.78zm-8.484-4.714h4.487V.013h-4.487v12.985zM13.434 5.244l1.265.014v1.487c0 .504.268 1.009.664 1.261a4.008 4.008 0 012.402 3.691c0 1.554-.916 2.921-2.228 3.585-.396.252-.838.863-.838 1.354v2.603-.014a1.43 1.43 0 001.422 1.434c4.931 0 8.962-4.036 8.962-8.962 0-4.952-4.03-8.989-8.962-8.989-.79 0-1.422.89-1.422 1.66v1.195l-1.881-.066V4.156a1.42 1.42 0 00-1.422-1.42H6.4L6.178.013h18.904c.98 0 1.802.823 1.802 1.793v23.527c0 .982-.854 1.898-1.834 1.898H1.754c-.98 0-1.754-.823-1.754-1.805V1.806C0 .836.806.013 1.786.013h4.489l.268 2.722H4.331a1.41 1.41 0 00-1.423 1.42v18.868c0 .77.632 1.407 1.423 1.407h7.08c.775 0 1.407-.398 1.407-1.182v-6.612c0-.491-.22-.942-.632-1.181-1.502-.585-2.434-2.058-2.434-3.758 0-1.513.806-2.815 2.038-3.505.396-.252 1.028-.943 1.028-1.447v-1.42h1.154l-.206 4.248a2.126 2.126 0 00-2.118 2.124c0 1.142.95 2.098 2.103 2.098 1.169 0 2.118-.956 2.118-2.098a2.103 2.103 0 00-2.103-2.124l-.332-4.329zM28.67 4.09v8.908h4.932V8.975h2.465a4.478 4.478 0 004.473-4.474A4.478 4.478 0 0036.067.027L28.671.013v4.435l4.93.04V2.934h1.139c.853 0 1.565.717 1.565 1.567s-.712 1.567-1.565 1.567h-1.138v-1.78l-4.931-.199-.001.001zM61.656.027c-3.635.185-6.7 2.854-6.7 6.426 0 3.704 3.05 6.545 6.874 6.545H73.7v-3.12h-5.373V8.086h5.153V4.939h-5.153V3.16H73.7V.014H61.625l.19 3.333c1.549-.027 2.529 1.407 2.529 3.133 0 1.713-.902 3.107-2.498 3.12-1.36 0-2.481-1.407-2.481-3.12 0-1.726 1.122-3.146 2.481-3.146l-.19-3.306V.027zM45.9 17.725c1.357 0 2.511 1.407 2.511 3.133s-1.138 3.134-2.496 3.134c-1.36 0-2.481-1.408-2.481-3.134s1.121-3.146 2.481-3.146l.094-3.386c-3.825 0-6.986 2.815-6.986 6.52 0 3.69 3.115 6.492 6.938 6.492 3.826 0 6.955-2.802 6.955-6.493 0-3.704-3.113-6.492-6.939-6.492l-.078 3.372h.001zm38.74 4.687h-1.315l1.128-3.134 1.116 3.134h-1.142l-.04 2.92h2.084l.664 2.006h4.926l-5.125-12.985h-4.952.026l-5.178 12.985h4.926l.677-2.005h2.151l.053-2.921" fill="#231F20"></path></svg> 