<?xml version="1.0" encoding="UTF-8"?> <svg xmlns="http://www.w3.org/2000/svg" width="103" height="36" fill="none"><path d="M11.808 7.443C9.46 6.401 8.06 5.997 6.668 5.997c-1.458 0-2.392.522-2.392 1.33 0 2.436 8.266 1.751 8.266 7.388 0 3.108-2.608 4.915-6.23 4.915-2.843 0-4.242-.736-5.855-1.568v-3.487C2.782 16.115 4.206 16.66 6 16.66c1.555 0 2.393-.545 2.393-1.493 0-2.654-8.267-1.682-8.267-7.486 0-2.8 2.418-4.653 6.185-4.653 1.819 0 3.458.381 5.497 1.258v3.157zM23.383 18.89c-1.378.499-2.544.738-3.706.738-3.851 0-6.34-2.243-6.34-5.655 0-3.35 2.587-5.715 6.197-5.715 1.115 0 2.54.285 3.681.71v2.564c-.902-.48-1.947-.742-2.803-.742-2.067 0-3.396 1.242-3.396 3.158 0 1.943 1.308 3.223 3.277 3.223.83 0 1.57-.19 3.09-.76v2.479zm30.02-6.173c.14-1.522 1.025-2.402 2.379-2.402 1.33 0 2.232.905 2.374 2.402h-4.753zm2.14-4.456c-3.378 0-5.783 2.386-5.783 5.744 0 3.383 2.501 5.623 6.356 5.623.853 0 2.92 0 4.887-1.456V16.03c-1.613 1.147-2.678 1.543-4.054 1.543-2.172 0-3.5-1.124-3.62-3.041h7.867c.163-4.004-2.465-6.272-5.651-6.272h-.001zm6.984 11.166h3.44V8.464h-3.44v10.962zm13.012-2.996c-.716.645-1.312.903-2.047.903-1.62 0-2.644-1.332-2.644-3.33 0-2.189 1.024-3.45 2.758-3.45.62 0 1.431.284 1.933.642v5.235zm0-13.2v5.713c-.93-.45-1.856-.686-2.857-.686-3.138 0-5.309 2.319-5.309 5.675 0 3.283 2.171 5.698 5.114 5.698 1.168 0 2.07-.307 3.052-1.089v.883h3.44V3.23h-3.44zm8.53 9.486c.144-1.522 1.023-2.402 2.374-2.402 1.333 0 2.244.905 2.387 2.402h-4.76zm2.139-4.456c-3.377 0-5.779 2.386-5.779 5.744 0 3.383 2.502 5.623 6.352 5.623.853 0 2.922 0 4.894-1.456V16.03c-1.613 1.147-2.681 1.543-4.063 1.543-2.16 0-3.494-1.124-3.614-3.041h7.863c.163-4.004-2.466-6.272-5.653-6.272" fill="#666"></path><mask id="a" style="mask-type:alpha" maskUnits="userSpaceOnUse" x="0" y="3" width="103" height="31"><path d="M.126 3.029v30.318H102.83V3.029" fill="#fff"></path></mask><g mask="url(#a)"><path d="M97.01 11.603h.051c1.021-2.283 2.164-3.353 3.491-3.353.687 0 1.28.262 2.277 1l-.946 3.04c-.903-.57-1.496-.808-2.042-.808-1.262 0-2.07 1.19-2.83 3.201v4.73h-3.445V8.45h3.444v3.151zM66.128 3.85c.323.851-.26 2.04-1.295 2.651-1.04.611-2.14.418-2.46-.434-.326-.854.252-2.043 1.291-2.651 1.037-.615 2.138-.42 2.463.434" fill="#666"></path></g><path d="M35.772 12.448c0-2.971-2.019-4.188-4.013-4.188-1.354 0-2.468.572-3.465 1.834h-.047V3.23h-3.443v16.165h3.444V12.45c.805-1.165 1.492-1.664 2.3-1.664 1.07 0 1.782.762 1.782 2.4v3.852c1.155-.593 2.329-.957 3.442-1.093V12.45zm8.637-4.191c-1.403 0-2.474.521-3.57 1.774V8.464h-3.441v7.452c1.192.118 2.713.664 3.441 1.568v-5.12c.905-1.358 1.547-1.81 2.404-1.81.974 0 1.715.642 1.715 2.188V19.4H48.4v-6.942c0-3.23-2.28-4.2-3.992-4.2v-.001zm5.893 14.29h-4v2.843h3.858v1.219h-3.858v2.932h4.12v1.218h-5.46v-9.428h5.34v1.217zm3.267 8.218h1.225v-9.438h-1.225v9.438zm7.29-5.286c.869 0 1.408.599 1.448 1.54h-3.12c.17-.983.734-1.54 1.673-1.54zm-1.695 2.356h4.365c0-2.3-1.052-3.41-2.698-3.41-1.708 0-2.894 1.262-2.894 3.145 0 1.721 1.072 3.311 3 3.311 1.052 0 1.732-.234 2.485-.733v-1.192c-.727.476-1.433.75-2.175.75-1.187 0-1.89-.636-2.083-1.87v-.001zm12.366-1.66c-.705-.482-1.175-.623-1.712-.623-1.121 0-1.898.86-1.898 2.12 0 1.283.827 2.056 2.103 2.056.525 0 1.026-.136 1.644-.412v1.209c-.413.194-1.2.356-1.849.356-1.855 0-3.143-1.276-3.143-3.099 0-2.058 1.176-3.358 3.06-3.358.718 0 1.202.168 1.795.428v1.323zm5.582-1.632h1.966v1.105h-1.966v3.19c0 .73.528.942.886.942.444 0 .9-.155 1.397-.461v1.15c-.43.236-1.09.411-1.495.411-1.335 0-2.01-.827-2.01-1.949v-3.283h-1.08v-.137l2.302-2.253v1.285zm6.652 0v1.44h.025c.624-1.102 1.218-1.559 1.796-1.559.5 0 .967.235 1.48.72l-.65 1.08c-.372-.369-.855-.623-1.146-.623-.844 0-1.505.857-1.505 1.92v3.244H82.54v-6.222h1.224zm15.856 1.632c-.708-.482-1.178-.623-1.718-.623-1.12 0-1.89.86-1.89 2.12 0 1.283.828 2.056 2.096 2.056.527 0 1.025-.136 1.651-.412v1.209c-.422.194-1.21.356-1.857.356-1.853 0-3.146-1.276-3.146-3.099 0-2.058 1.182-3.358 3.065-3.358.72 0 1.2.168 1.8.428v1.323zm-9.307 4.59h1.225v-6.222h-1.225v6.223zm1.267-8.455c.12.3-.09.725-.458.94-.37.217-.764.148-.876-.153-.112-.305.092-.726.464-.942.367-.22.758-.15.87.154zm-54.84.503c-.216 0-.306.036-.395.134-.035.038-.048.076-.06.154l-1.1 4.168c-.258 1.461-2.053 2.92-4.392 2.92H27.54l.564-2.14h2.09a.662.662 0 00.52-.235.497.497 0 00.126-.253l.868-3.64c.256-1.462 1.8-3.077 4.14-3.077h3.332l-.428 1.97h-2.011v-.001zm.75 2.539l.373-1.349h3.384c.417-1.954.09-3.765-1.097-4.951-2.4-2.401-7.424-1.585-11.166 1.995a13.027 13.027 0 00-1.527 1.771h2.037l-.474 1.35h-2.434c-.233.427-.451.849-.618 1.278h2.887l-.463 1.35h-2.836c-.486 2.065-.176 3.99 1.044 5.212 2.371 2.37 7.379 1.537 11.119-2.042a13.386 13.386 0 001.684-1.985h-2.62l.4-1.348h3.06c.225-.428.43-.853.592-1.281H37.49" fill="#666"></path></svg> 