<?xml version="1.0" encoding="UTF-8"?> <svg xmlns="http://www.w3.org/2000/svg" width="69" height="32" fill="none"><path d="M1.07 23.498h5.383v2.253H4.001v.788h2.24v2.145H4v.81h2.538v2.254h-5.47l.002-8.25zm13.663 0v4.88c0 2.408-1.466 3.502-3.707 3.502-2.24 0-3.704-1.094-3.704-3.502v-4.88h2.91v4.595c0 .646.02 1.214.794 1.214.776 0 .797-.568.797-1.213v-4.596h2.909zm.912 0h3.513c1.805 0 3.334.787 3.334 2.866 0 1.249-.468 1.773-1.55 2.145v.066c.149.12 2.23 3.173 2.23 3.173h-3.355L18.543 29.1h-.053v2.648h-2.845v-8.25zm2.845 3.654h.201c.478 0 .956-.076.956-.69 0-.633-.435-.71-.935-.71h-.222v1.4zm13.385.494c0 2.647-1.985 4.234-4.427 4.234-2.442 0-4.427-1.587-4.427-4.234 0-2.595 1.996-4.28 4.427-4.28 2.431 0 4.427 1.684 4.427 4.279zm-5.924.043c0 .94.616 1.586 1.497 1.586.88 0 1.496-.645 1.496-1.586 0-.876-.572-1.61-1.496-1.61s-1.496.734-1.496 1.61h-.001zm6.602-4.191h2.962c2.685 0 4.745 1.214 4.745 4.245 0 2.452-1.677 4.005-4.023 4.005h-3.684v-8.25zm2.908 5.777h.181c.966 0 1.71-.459 1.71-1.543 0-1.16-.648-1.652-1.71-1.652h-.18v3.195zm5.478-5.777h3.514c1.805 0 3.334.787 3.334 2.866 0 1.249-.468 1.773-1.55 2.145v.066c.148.12 2.23 3.173 2.23 3.173H45.11L43.837 29.1h-.053v2.648H40.94v-8.25zm2.845 3.654h.203c.477 0 .955-.076.955-.69 0-.633-.436-.71-.935-.71h-.223v1.4zm5.032-3.654h2.909v8.25h-2.909v-8.25zm11.944 0l-3.1 8.25h-2.463l-3.1-8.25h3.036l1.062 3.752c.117.405.202.81.202 1.227h.063c0-.416.085-.821.201-1.227l1.063-3.752h3.036zm.234 0h5.382v2.253h-2.453v.788h2.241v2.145h-2.241v.81h2.538v2.254h-5.467v-8.25zM2.463 14.54l.409.322c1.438 1.114 3.167 2.023 5.013 2.023.792 0 2.052-.323 2.052-1.32 0-.997-1.054-1.083-1.788-1.231l-1.612-.293C3.4 13.484.762 11.638.762 8.18.762 2.932 5.54 0 10.347 0c2.522 0 4.837.615 7.006 1.935l-2.169 5.659c-1.377-.939-2.932-1.672-4.661-1.672-.703 0-1.729.264-1.729 1.173 0 .821.997.938 1.611 1.085l1.82.41c3.399.761 5.861 2.58 5.861 6.332 0 5.276-4.807 7.885-9.585 7.885-2.786 0-6.01-.762-8.501-2.023l2.463-6.243v-.001zM19.432.352h14.862v6.037h-6.772V8.5h6.186v5.747h-6.186v2.17h7.007v6.038H19.432V.352z" fill="#474747"></path><path d="M42.409.352l2.77 12.764L48.388.352h6.157l3.011 12.764L60.524.352h8.354l-7.797 22.102h-7.006l-2.521-12.018-2.902 12.018h-6.829L34.084.351l8.325.001z" fill="#474747"></path></svg> 