<?xml version="1.0" encoding="UTF-8"?><svg id="a" xmlns="http://www.w3.org/2000/svg" viewBox="0 0 28.2 28.5"><defs><style>.c{fill:#131829;}</style></defs><g id="b"><path class="c" d="m26.5,23.5H1.7V5h24.7v18.6Zm-5.3-1.8h3.5V6.7h-3.5v15Zm-17.7,0h15.9V6.7H3.5v15Z"/><path class="c" d="m17.7,20h-5.3v-4.4h5.3v4.4Zm-3.5-1.8h1.8v-.9h-1.8v.9Zm-3.5,1.8h-5.3v-4.4h5.3v4.4Zm-3.5-1.8h1.8v-.9h-1.8v.9Zm10.6-4.4H5.3v-5.3h12.4v5.3Zm-10.6-1.8h8.8v-1.8H7v1.8Z"/><path class="c" d="m19.4,28c-1,0-1.8-.8-1.8-1.8s.4-1.2.9-1.5v-1.1h1.8v1.1c.5.3.9.9.9,1.5,0,1-.8,1.8-1.8,1.8Zm-5.3,0c-1,0-1.8-.8-1.8-1.8s.4-1.2.9-1.5v-1.1h1.8v1.1c.5.3.9.9.9,1.5,0,1-.8,1.8-1.8,1.8Zm-5.3,0c-1,0-1.8-.8-1.8-1.8s.4-1.2.9-1.5v-1.1h1.8v1.1c.5.3.9.9.9,1.5,0,1-.8,1.8-1.8,1.8ZM20.3,5h-1.8v-1.1c-.5-.3-.9-.9-.9-1.5,0-1,.8-1.8,1.8-1.8s1.8.8,1.8,1.8-.4,1.2-.9,1.5v1.1Zm-5.3,0h-1.8v-1.1c-.5-.3-.9-.9-.9-1.5,0-1,.8-1.8,1.8-1.8s1.8.8,1.8,1.8-.4,1.2-.9,1.5v1.1Zm-5.3,0h-1.8v-1.1c-.5-.3-.9-.9-.9-1.5,0-1,.8-1.8,1.8-1.8s1.8.8,1.8,1.8-.4,1.2-.9,1.5v1.1Z"/></g></svg>