<?xml version="1.0" encoding="UTF-8"?><svg id="a" xmlns="http://www.w3.org/2000/svg" viewBox="0 0 28.2 28.5"><defs><style>.c{fill:#131829;}</style></defs><g id="b"><path class="c" d="m20.9,22.5H7.4c-.8,0-1.5-.7-1.5-1.5V7.5c0-.8.7-1.5,1.5-1.5h13.5c.8,0,1.5.7,1.5,1.5v13.5c0,.8-.7,1.5-1.5,1.5ZM7.4,7.5v13.5h13.5V7.5H7.4Z"/><path class="c" d="m18.6,26.3c-.4,0-.8-.3-.8-.8v-3.8c0-.4.3-.8.8-.8s.7.3.7.8v3.8c0,.4-.3.8-.7.8Zm-3,0c-.4,0-.8-.3-.8-.8v-3.8c0-.4.3-.8.8-.8s.8.3.8.8v3.8c0,.4-.3.8-.8.8Zm-3,0c-.4,0-.8-.3-.8-.8v-3.8c0-.4.3-.8.8-.8s.8.3.8.8v3.8c0,.4-.3.8-.8.8Zm-3,0c-.4,0-.8-.3-.8-.8v-3.8c0-.4.3-.8.8-.8s.8.3.8.8v3.8c0,.4-.3.8-.8.8Zm15.7-6.8h-3.7c-.4,0-.8-.3-.8-.7s.3-.8.8-.8h3.7c.4,0,.8.3.8.8s-.3.7-.8.7Zm-9,0h-4.5v-10.5h4.5v10.5Zm-3-1.5h1.5v-7.5h-1.5v7.5Zm-6.7,1.5h-3.8c-.4,0-.8-.3-.8-.7s.3-.8.8-.8h3.8c.4,0,.8.3.8.8s-.3.7-.8.7Zm18.7-3h-3.7c-.4,0-.8-.3-.8-.8s.3-.8.8-.8h3.7c.4,0,.8.3.8.8s-.3.8-.8.8Zm-18.7,0h-3.8c-.4,0-.8-.3-.8-.8s.3-.8.8-.8h3.8c.4,0,.8.3.8.8s-.3.8-.8.8Zm18.7-3h-3.7c-.4,0-.8-.3-.8-.8s.3-.8.8-.8h3.7c.4,0,.8.3.8.8s-.3.8-.8.8Zm-18.7,0h-3.8c-.4,0-.8-.3-.8-.8s.3-.8.8-.8h3.8c.4,0,.8.3.8.8s-.3.8-.8.8Zm18.7-3h-3.7c-.4,0-.8-.3-.8-.8s.3-.8.8-.8h3.7c.4,0,.8.3.8.8s-.3.8-.8.8Zm-18.7,0h-3.8c-.4,0-.8-.3-.8-.8s.3-.8.8-.8h3.8c.4,0,.8.3.8.8s-.3.8-.8.8Zm12-3c-.4,0-.8-.3-.8-.8v-3.8c0-.4.3-.8.8-.8s.8.3.8.8v3.8c0,.4-.3.8-.8.8Zm-3,0c-.4,0-.8-.3-.8-.8v-3.8c0-.4.3-.8.8-.8s.8.3.8.8v3.8c0,.4-.3.8-.8.8Zm-3,0c-.4,0-.8-.3-.8-.8v-3.8c0-.4.3-.8.8-.8s.7.3.7.8v3.8c0,.4-.3.8-.7.8Zm-3,0c-.4,0-.8-.3-.8-.8v-3.8c0-.4.3-.8.8-.8s.8.3.8.8v3.8c0,.4-.3.8-.8.8Z"/><path class="c" d="m10.4,11.3c0,.4-.3.8-.8.8s-.7-.3-.7-.8.3-.7.7-.7.8.3.8.7Z"/><path class="c" d="m19.4,11.3c0,.4-.3.8-.7.8s-.8-.3-.8-.8.3-.7.8-.7.7.3.7.7Z"/><path class="c" d="m10.4,14.3c0,.4-.3.8-.8.8s-.7-.3-.7-.8.3-.8.7-.8.8.3.8.8Z"/><path class="c" d="m19.4,14.3c0,.4-.3.8-.7.8s-.8-.3-.8-.8.3-.8.8-.8.7.3.7.8Z"/><path class="c" d="m10.4,17.3c0,.4-.3.7-.8.7s-.7-.3-.7-.7.3-.8.7-.8.8.3.8.8Z"/><path class="c" d="m19.4,17.3c0,.4-.3.7-.7.7s-.8-.3-.8-.7.3-.8.8-.8.7.3.7.8Z"/></g></svg>