<?xml version="1.0" encoding="UTF-8"?><svg id="a" xmlns="http://www.w3.org/2000/svg" viewBox="0 0 28.2 28.5"><defs><style>.c{fill:#131829;}</style></defs><g id="b"><path class="c" d="m20.4,28.4H7.9c-1.4,0-2.5-1.1-2.5-2.5V2.6C5.4,1.2,6.5.1,7.9.1h12.5c1.4,0,2.5,1.1,2.5,2.5v23.3c0,1.4-1.1,2.5-2.5,2.5ZM7.9,1.8c-.5,0-.8.4-.8.8v23.3c0,.5.4.8.8.8h12.5c.5,0,.8-.4.8-.8V2.6c0-.5-.4-.8-.8-.8H7.9Z"/><path class="c" d="m18.3,19.7h-1.7c-.5,0-.8-.4-.8-.8s.4-.8.8-.8h1.7c.5,0,.8.4.8.8s-.4.8-.8.8Zm-2.6-8.1c-.2,0-.4,0-.6-.2-.2-.2-.5-.4-.9-.4s-.6.1-.9.4l-1.2-1.2c1.1-1.1,3-1.1,4.1,0,.3.3.3.9,0,1.2-.2.2-.4.2-.6.2h0Zm1.8-1.8c-.2,0-.4,0-.6-.2-.7-.7-1.6-1.1-2.6-1.1s-1.9.4-2.6,1.1c-.3.3-.9.3-1.2,0-.3-.3-.3-.9,0-1.2,1-1,2.4-1.6,3.8-1.6s2.8.6,3.8,1.6c.3.3.3.9,0,1.2-.2.2-.4.2-.6.2Zm1.8-1.8c-.2,0-.4,0-.6-.2-1.8-1.8-4.5-2.3-6.8-1.4-.8.3-1.4.8-2,1.4-.3.3-.9.3-1.2,0-.3-.3-.3-.9,0-1.2.7-.7,1.6-1.3,2.6-1.7,3-1.2,6.3-.6,8.6,1.7.3.3.3.9,0,1.2-.2.2-.4.2-.6.2Z"/><path class="c" d="m11.2,25.1c-1.4,0-2.5-1.1-2.5-2.5s1.1-2.5,2.5-2.5,2.5,1.1,2.5,2.5-1.1,2.5-2.5,2.5Zm0-3.3c-.5,0-.8.4-.8.8s.4.8.8.8.8-.4.8-.8-.4-.8-.8-.8Z"/><path class="c" d="m18.3,24.7h-1.7c-.5,0-.8-.4-.8-.8s.4-.8.8-.8h1.7c.5,0,.8.4.8.8s-.4.8-.8.8Zm0-2.5h-1.7c-.5,0-.8-.4-.8-.8s.4-.8.8-.8h1.7c.5,0,.8.4.8.8s-.4.8-.8.8Z"/></g></svg>