<?xml version="1.0" encoding="UTF-8"?><svg id="a" xmlns="http://www.w3.org/2000/svg" viewBox="0 0 28.2 28.5"><defs><style>.c{fill:#131829;}</style></defs><g id="b"><path class="c" d="m25.3,25.8H3c-1.4,0-2.6-1.2-2.6-2.6V5.3c0-1.4,1.2-2.6,2.6-2.6h22.3c1.4,0,2.6,1.2,2.6,2.6v18c0,1.4-1.2,2.6-2.6,2.6ZM3,4.4c-.5,0-.9.4-.9.9v18c0,.5.4.9.9.9h22.3c.5,0,.9-.4.9-.9V5.3c0-.5-.4-.9-.9-.9H3Z"/><path class="c" d="m27,19H1.3v-1.7h25.7v1.7Zm-16.3-3.4h-5.1v-4.3h5.1v1.3h3v-3.4h-3v1.3h-5.1v-4.3h5.1v1.3h4.7v2.6h2.1v-1.3h5.1v4.3h-5.1v-1.3h-2.1v2.6h-4.7v1.3Zm-3.4-1.7h1.7v-.9h-1.7v.9Zm12-2.6h1.7v-.9h-1.7v.9Zm-12-2.6h1.7v-.9h-1.7v.9Z"/><path class="c" d="m14.1,23.2c.9,0,1.7-.8,1.7-1.7s-.8-1.7-1.7-1.7-1.7.8-1.7,1.7.8,1.7,1.7,1.7Zm-8.6-.9c.5,0,.9-.4.9-.9s-.4-.9-.9-.9-.9.4-.9.9.4.9.9.9Zm3.9,0c.5,0,.9-.4.9-.9s-.4-.9-.9-.9-.9.4-.9.9.4.9.9.9Zm9.4,0c.5,0,.9-.4.9-.9s-.4-.9-.9-.9-.9.4-.9.9.4.9.9.9Zm3.9,0c.5,0,.9-.4.9-.9s-.4-.9-.9-.9-.9.4-.9.9.4.9.9.9Z"/></g></svg>