<?xml version="1.0" encoding="UTF-8"?><svg id="a" xmlns="http://www.w3.org/2000/svg" viewBox="0 0 28.2 28.5"><defs><style>.c{fill:#131829;}</style></defs><g id="b"><path class="c" d="m9.2,28.2H1c-.5,0-.8-.4-.8-.8v-11.5c0-.5.4-.8.8-.8h5.7c.2,0,.4,0,.6.2l2.5,2.5c.2.2.2.4.2.6v9c0,.5-.4.8-.8.8Zm-7.4-1.6h6.6v-7.9l-2-2H1.8v9.8Zm7.4-13.1H1c-.5,0-.8-.4-.8-.8V1.1C.2.7.6.3,1,.3h5.7c.2,0,.4,0,.6.2l2.5,2.5c.2.2.2.4.2.6v9c0,.5-.4.8-.8.8Zm-7.4-1.6h6.6V3.9l-2-2H1.8v9.8Z"/><path class="c" d="m9.2,20h-3.3c-.5,0-.8-.4-.8-.8v-3.3h1.6v2.5h2.5v1.6Zm0-14.8h-3.3c-.5,0-.8-.4-.8-.8V1.1h1.6v2.5h2.5v1.6Z"/><path class="c" d="m26.4,28.2h-7.4c-.9,0-1.6-.7-1.6-1.6v-9c0-.5.4-.8.8-.8s.8.4.8.8v9h7.4V2h-7.4v9c0,.5-.4.8-.8.8s-.8-.4-.8-.8V2c0-.9.7-1.6,1.6-1.6h7.4c.9,0,1.6.7,1.6,1.6v24.6c0,.9-.7,1.6-1.6,1.6Z"/><path class="c" d="m14.1,22h-2c-.5,0-.8-.4-.8-.8s.4-.8.8-.8h1.2V7.7h-1.2c-.5,0-.8-.4-.8-.8s.4-.8.8-.8h2c.5,0,.8.4.8.8v14.3c0,.5-.4.8-.8.8Z"/><path class="c" d="m22.3,16.7c-1.4,0-2.5-1.1-2.5-2.5s1.1-2.5,2.5-2.5,2.5,1.1,2.5,2.5-1.1,2.5-2.5,2.5Zm0-3.3c-.5,0-.8.4-.8.8s.4.8.8.8.8-.4.8-.8-.4-.8-.8-.8Z"/><path class="c" d="m14.1,13.4h6.6v1.6h-6.6v-1.6Z"/></g></svg>