<?xml version="1.0" encoding="UTF-8"?><svg id="a" xmlns="http://www.w3.org/2000/svg" viewBox="0 0 28.2 28.5"><defs><style>.c{fill:#131829;}</style></defs><g id="b"><path class="c" d="m27,27.2H7.2c-.3,0-.5-.1-.7-.3-.2-.2-.2-.5-.2-.7l1.5-6.6c0-.4.4-.7.8-.7h16.7c.4,0,.7.3.8.7l1.5,6.6c0,.3,0,.5-.2.7s-.4.3-.7.3Zm-18.7-1.7h17.6l-1.1-4.9h-15.3l-1.1,4.9Z"/><path class="c" d="m22.2,25c1.1,0,2-.9,2-2,0-1.1-.9-2-2-2h0c-1.1,0-2,.9-2,2,0,1.1.9,1.9,2,2Zm-10.3-.9c.6,0,1.1-.5,1.1-1.1s-.5-1.1-1.1-1.1-1.1.5-1.1,1.1.5,1.1,1.1,1.1Z"/><path class="c" d="m25.5,20.5H8.8c-.5,0-.9-.4-.9-.9v-11.4c0-.5.4-.9.9-.9h4.9v1.7h-4.1v9.7h15v-9.7h-4.1v-1.7h4.9c.5,0,.9.4.9.9v11.4c0,.5-.4.9-.9.9Z"/><path class="c" d="m18.6,12.9h-3c-.5,0-.9-.4-.9-.9v-6.1c0-.5.4-.9.9-.9h3c.5,0,.9.4.9.9v6.1c0,.5-.4.9-.9.9Zm-2.2-1.7h1.3v-4.4h-1.3v4.4Z"/><path class="c" d="m17.1,14.5c-.5,0-.9-.4-.9-.9v-1.5c0-.5.4-.9.9-.9s.9.4.9.9v1.5c0,.5-.4.9-.9.9Z"/><path class="c" d="m7.4,24.5C-.4,17,0,11.1.8,8.2,1.9,4.7,5,2,8.7,1.5c3.6-.6,7,.9,9.2,4l-1.4,1c-1.8-2.6-4.5-3.8-7.5-3.3-3,.5-5.5,2.6-6.4,5.5-.8,2.5-1,7.7,6.1,14.5l-1.2,1.2Zm18.9-15.8h-1.7v-2.3h1.7v2.3Zm-16.7,0h-1.7v-2.3h1.7v2.3Z"/></g></svg>