<?xml version="1.0" encoding="UTF-8"?><svg id="a" xmlns="http://www.w3.org/2000/svg" viewBox="0 0 28.2 28.5"><defs><style>.c{fill:#131829;}</style></defs><g id="b"><path class="c" d="m13.3,21.9H2c-.9,0-1.6-.7-1.6-1.6V2.5C.4,1.6,1.1.9,2,.9h11.3c.9,0,1.6.7,1.6,1.6v17.8c0,.9-.7,1.6-1.6,1.6ZM2,2.5h0v17.8h11.3V2.5H2Z"/><path class="c" d="m1.2,7.4h12.1v1.6H1.2v-1.6Z"/><path class="c" d="m5.2,5c0,.4-.4.8-.8.8s-.8-.4-.8-.8.4-.8.8-.8.8.4.8.8Z"/><path class="c" d="m8.5,5c0,.4-.4.8-.8.8s-.8-.4-.8-.8.4-.8.8-.8.8.4.8.8Z"/><path class="c" d="m11.7,5c0,.4-.4.8-.8.8s-.8-.4-.8-.8.4-.8.8-.8.8.4.8.8Z"/><path class="c" d="m25.4,18.7c-1.3,0-2.4-1.1-2.4-2.4v-5.7c0-.4.4-.8.8-.8h3.2c.4,0,.8.4.8.8v5.7c0,1.3-1.1,2.4-2.4,2.4Zm-.8-7.3v4.9c0,.4.4.8.8.8s.8-.4.8-.8v-4.9h-1.6,0Zm-5.7,3.2c-1.3,0-2.4-1.1-2.4-2.4v-5.7c0-.4.4-.8.8-.8h3.2c.4,0,.8.4.8.8v5.7c0,1.3-1.1,2.4-2.4,2.4Zm-.8-7.3v4.9c0,.4.4.8.8.8s.8-.4.8-.8v-4.9h-1.6,0Z"/><path class="c" d="m25.4,10.6c-.4,0-.8-.4-.8-.8v-2.4c0-.4.4-.8.8-.8s.8.4.8.8v2.4c0,.4-.4.8-.8.8Zm-6.5-4c-.4,0-.8-.4-.8-.8v-2.4c0-.4.4-.8.8-.8s.8.4.8.8v2.4c0,.4-.4.8-.8.8Z"/><path class="c" d="m22.2,27.6h-11.3c-2.2,0-4-1.8-4-4v-3.2h1.6v3.2c0,1.3,1.1,2.4,2.4,2.4h11.3c1.3,0,2.4-1.1,2.4-2.4v-6.5h1.6v6.5c0,2.2-1.8,4-4,4Z"/><path class="c" d="m15.7,27.6h-.8v-1.6h.8c1.3,0,2.4-1.1,2.4-2.4v-10.5h1.6v10.5c0,2.2-1.8,4-4,4Z"/><path class="c" d="m11.7,11.4c0,.4-.4.8-.8.8h-.8c-.4,0-.8-.4-.8-.8s.4-.8.8-.8h.8c.4,0,.8.4.8.8Z"/><path class="c" d="m11.7,14.7c0,.4-.4.8-.8.8h-.8c-.4,0-.8-.4-.8-.8s.4-.8.8-.8h.8c.4,0,.8.4.8.8Z"/><path class="c" d="m11.7,17.9c0,.4-.4.8-.8.8h-.8c-.4,0-.8-.4-.8-.8s.4-.8.8-.8h.8c.4,0,.8.4.8.8Z"/><path class="c" d="m7.6,18.7H3.6v-8.1h4v8.1Zm-2.4-1.6h.8v-4.9h-.8v4.9Z"/></g></svg>