<?xml version="1.0" encoding="UTF-8"?><svg id="a" xmlns="http://www.w3.org/2000/svg" viewBox="0 0 28.2 28.5"><defs><style>.c{fill:#131829;}</style></defs><g id="b"><path class="c" d="m22.1,25.4c-.2,0-.5-.1-.6-.3-.3-.3-.2-.9.1-1.1,2.9-2.2,4.5-5.6,4.5-9.2,0-6.5-5.4-11.7-12-11.7S2.1,8.3,2.1,14.8s1.6,7,4.5,9.2c.3.3.4.8.1,1.1-.3.3-.8.4-1.1.1C2.4,22.7.5,18.9.5,14.8c0-7.4,6.1-13.3,13.6-13.3s13.6,6,13.6,13.3-1.9,7.9-5.1,10.5c-.1.1-.3.2-.5.2Zm-1.9-2.3c-.2,0-.5-.1-.6-.3-.3-.3-.2-.9.1-1.1,2.2-1.7,3.4-4.2,3.4-6.9,0-4.9-4-8.8-9-8.8s-9,3.9-9,8.8,1.2,5.2,3.4,6.9c.3.3.4.8.1,1.1-.3.3-.8.4-1.1.1-2.5-2-4-5-4-8.2,0-5.7,4.7-10.4,10.6-10.4s10.6,4.7,10.6,10.4-1.5,6.2-4,8.2c-.1.1-.3.2-.5.2h0Zm-1.9-2.3c-.2,0-.5-.1-.6-.3-.3-.3-.2-.9.1-1.1,1.4-1.1,2.3-2.8,2.3-4.6,0-3.2-2.7-5.8-6-5.8s-6,2.6-6,5.8.8,3.5,2.3,4.6c.3.3.4.8.1,1.1-.3.3-.8.4-1.1.1-1.8-1.4-2.9-3.5-2.9-5.8,0-4.1,3.4-7.4,7.6-7.4s7.6,3.3,7.6,7.4-1,4.4-2.9,5.8c-.1.1-.3.2-.5.2h0Z"/><path class="c" d="m14.1,19.1c-2.2,0-4-1.8-4-4s1.8-4,4-4,4,1.8,4,4-1.8,4-4,4Zm0-6.4c-1.3,0-2.4,1.1-2.4,2.4s1.1,2.4,2.4,2.4,2.4-1.1,2.4-2.4-1.1-2.4-2.4-2.4Z"/><path class="c" d="m14.9,15.1c0,.4-.4.8-.8.8s-.8-.4-.8-.8.4-.8.8-.8.8.4.8.8Z"/><path class="c" d="m13.3,17.5h1.6v5.6h-1.6v-5.6Z"/><path class="c" d="m18.1,27h-8v-1.6c0-2.2,1.8-4,4-4s4,1.8,4,4v1.6Zm-6.4-1.6h4.8c0-1.3-1.1-2.4-2.4-2.4s-2.4,1.1-2.4,2.4Z"/></g></svg>